  <svg
    width="658"
    height="130"
    viewBox="0 0 658 130"
    fill="none"
    xmlns="http://www.w3.org/2000/svg"
  >
    <rect x="1" y="107.424" width="657" height="13" fill="url(#paint0_linear_1_733)" />
    <path
      d="M3.68923 90.4244V67.5164H8.76884L17.2348 87.4696H17.8656V67.5164H20.7872V90.4244H15.8072L7.24163 70.438H6.61084V90.4244H3.68923Z"
      fill="#6C6C70"
    />
    <path
      d="M29.5432 90.7564C27.9718 90.7564 26.7766 90.3248 25.9576 89.4616C25.1608 88.5984 24.7624 87.3257 24.7624 85.6436C24.7624 84.5369 24.9506 83.6405 25.3268 82.9544C25.7252 82.2683 26.3118 81.7481 27.0864 81.394C27.8832 81.0399 28.846 80.8185 29.9748 80.73L34.9548 80.232V78.8708C34.9548 77.7863 34.7113 77.0227 34.2244 76.58C33.7375 76.1373 33.0292 75.916 32.0996 75.916C31.5242 75.916 30.8491 75.9381 30.0744 75.9824C29.3219 76.0267 28.5583 76.082 27.7836 76.1484C27.0311 76.2148 26.3671 76.2812 25.7916 76.3476L25.6588 74.2228C26.19 74.1121 26.8319 74.0015 27.5844 73.8908C28.3591 73.7801 29.1559 73.6916 29.9748 73.6252C30.8159 73.5367 31.5795 73.4924 32.2656 73.4924C33.5494 73.4924 34.6007 73.6805 35.4196 74.0568C36.2385 74.4331 36.8362 75.0196 37.2124 75.8164C37.6108 76.5911 37.81 77.5981 37.81 78.8376V87.1376C37.8543 87.6024 38.0424 87.9455 38.3744 88.1668C38.7064 88.366 39.1269 88.4988 39.636 88.5652L39.5364 90.7564C39.2266 90.7564 38.9167 90.7453 38.6068 90.7232C38.3191 90.7011 38.0424 90.6679 37.7768 90.6236C37.5112 90.5793 37.2677 90.524 37.0464 90.4576C36.7144 90.3469 36.4156 90.2141 36.15 90.0592C35.8844 89.8821 35.6299 89.6829 35.3864 89.4616C34.9659 89.6387 34.4347 89.8268 33.7928 90.026C33.1509 90.2252 32.4648 90.3912 31.7344 90.524C31.004 90.6789 30.2736 90.7564 29.5432 90.7564ZM30.0412 88.4324C30.6167 88.4324 31.2143 88.3881 31.834 88.2996C32.4538 88.1889 33.0403 88.0561 33.5936 87.9012C34.1469 87.7463 34.6007 87.6024 34.9548 87.4696V82.2904L30.34 82.722C29.3883 82.8105 28.7022 83.0983 28.2816 83.5852C27.8611 84.05 27.6508 84.714 27.6508 85.5772C27.6508 86.4625 27.85 87.1597 28.2484 87.6688C28.669 88.1779 29.2666 88.4324 30.0412 88.4324Z"
      fill="#6C6C70"
    />
    <path
      d="M47.8704 90.7896C46.7195 90.7896 45.8009 90.6125 45.1148 90.2584C44.4287 89.9043 43.9307 89.2956 43.6208 88.4324C43.3331 87.5471 43.1892 86.3076 43.1892 84.714V76.248H40.8984V73.8244H43.1892V68.8444H46.0112V73.8244H51.0908V76.248H46.0112V83.9172C46.0112 85.046 46.0555 85.9313 46.144 86.5732C46.2547 87.1929 46.4649 87.6356 46.7748 87.9012C47.1068 88.1447 47.6159 88.2664 48.302 88.2664C48.5233 88.2664 48.8 88.2553 49.132 88.2332C49.4861 88.2111 49.8403 88.1889 50.1944 88.1668C50.5707 88.1225 50.8916 88.0893 51.1572 88.0672L51.3232 90.4244C51.0133 90.4687 50.6371 90.5129 50.1944 90.5572C49.7739 90.6236 49.3533 90.6789 48.9328 90.7232C48.5123 90.7675 48.1581 90.7896 47.8704 90.7896Z"
      fill="#6C6C70"
    />
    <path
      d="M54.0643 90.4244V73.8244H56.8531V90.4244H54.0643ZM54.0643 70.3052V67.2176H56.8531V70.3052H54.0643Z"
      fill="#6C6C70"
    />
    <path
      d="M67.9629 90.7564C66.1037 90.7564 64.6429 90.4355 63.5805 89.7936C62.5402 89.1517 61.8098 88.1889 61.3893 86.9052C60.9687 85.5993 60.7585 83.9393 60.7585 81.9252C60.7585 80.0217 60.9909 78.4503 61.4557 77.2108C61.9205 75.9492 62.6841 75.0196 63.7465 74.422C64.8089 73.8023 66.2143 73.4924 67.9629 73.4924C69.7336 73.4924 71.1501 73.8023 72.2125 74.422C73.2749 75.0196 74.0385 75.9492 74.5033 77.2108C74.9681 78.4503 75.2005 80.0217 75.2005 81.9252C75.2005 83.9393 74.9791 85.5993 74.5365 86.9052C74.116 88.1889 73.3856 89.1517 72.3453 89.7936C71.305 90.4355 69.8442 90.7564 67.9629 90.7564ZM67.9629 88.3328C69.2023 88.3328 70.1319 88.1225 70.7517 87.702C71.3714 87.2593 71.7809 86.5621 71.9801 85.6104C72.1793 84.6587 72.2789 83.4303 72.2789 81.9252C72.2789 80.4423 72.1461 79.2581 71.8805 78.3728C71.637 77.4875 71.2054 76.8567 70.5857 76.4804C69.9659 76.1041 69.0917 75.916 67.9629 75.916C66.8562 75.916 65.9819 76.1041 65.3401 76.4804C64.7203 76.8567 64.2777 77.4875 64.0121 78.3728C63.7686 79.2581 63.6469 80.4423 63.6469 81.9252C63.6469 83.4303 63.7465 84.6587 63.9457 85.6104C64.1449 86.5621 64.5543 87.2593 65.1741 87.702C65.7938 88.1225 66.7234 88.3328 67.9629 88.3328Z"
      fill="#6C6C70"
    />
    <path
      d="M79.1264 90.4244V73.8244H81.9152V74.9532C82.2915 74.7319 82.7562 74.5105 83.3096 74.2892C83.885 74.0679 84.4826 73.8797 85.1024 73.7248C85.7442 73.5699 86.3529 73.4924 86.9284 73.4924C88.0793 73.4924 89.02 73.6473 89.7504 73.9572C90.5029 74.2449 91.0784 74.7208 91.4768 75.3848C91.8973 76.0267 92.1851 76.8677 92.34 77.908C92.517 78.9261 92.6056 80.1767 92.6056 81.6596V90.4244H89.7836V81.7592C89.7836 80.3648 89.6951 79.2471 89.518 78.406C89.3631 77.5649 89.0421 76.9563 88.5552 76.58C88.0904 76.2037 87.36 76.0156 86.364 76.0156C85.8328 76.0156 85.2794 76.082 84.704 76.2148C84.1507 76.3255 83.6305 76.4693 83.1436 76.6464C82.6566 76.8235 82.2472 77.0005 81.9152 77.1776V90.4244H79.1264Z"
      fill="#6C6C70"
    />
    <path
      d="M100.774 90.7564C99.2026 90.7564 98.0074 90.3248 97.1885 89.4616C96.3917 88.5984 95.9933 87.3257 95.9933 85.6436C95.9933 84.5369 96.1814 83.6405 96.5577 82.9544C96.9561 82.2683 97.5426 81.7481 98.3173 81.394C99.1141 81.0399 100.077 80.8185 101.206 80.73L106.186 80.232V78.8708C106.186 77.7863 105.942 77.0227 105.455 76.58C104.968 76.1373 104.26 75.916 103.33 75.916C102.755 75.916 102.08 75.9381 101.305 75.9824C100.553 76.0267 99.7891 76.082 99.0145 76.1484C98.2619 76.2148 97.5979 76.2812 97.0225 76.3476L96.8897 74.2228C97.4209 74.1121 98.0627 74.0015 98.8153 73.8908C99.5899 73.7801 100.387 73.6916 101.206 73.6252C102.047 73.5367 102.81 73.4924 103.496 73.4924C104.78 73.4924 105.832 73.6805 106.65 74.0568C107.469 74.4331 108.067 75.0196 108.443 75.8164C108.842 76.5911 109.041 77.5981 109.041 78.8376V87.1376C109.085 87.6024 109.273 87.9455 109.605 88.1668C109.937 88.366 110.358 88.4988 110.867 88.5652L110.767 90.7564C110.457 90.7564 110.148 90.7453 109.838 90.7232C109.55 90.7011 109.273 90.6679 109.008 90.6236C108.742 90.5793 108.499 90.524 108.277 90.4576C107.945 90.3469 107.646 90.2141 107.381 90.0592C107.115 89.8821 106.861 89.6829 106.617 89.4616C106.197 89.6387 105.666 89.8268 105.024 90.026C104.382 90.2252 103.696 90.3912 102.965 90.524C102.235 90.6789 101.504 90.7564 100.774 90.7564ZM101.272 88.4324C101.848 88.4324 102.445 88.3881 103.065 88.2996C103.685 88.1889 104.271 88.0561 104.824 87.9012C105.378 87.7463 105.832 87.6024 106.186 87.4696V82.2904L101.571 82.722C100.619 82.8105 99.933 83.0983 99.5125 83.5852C99.0919 84.05 98.8817 84.714 98.8817 85.5772C98.8817 86.4625 99.0809 87.1597 99.4793 87.6688C99.8998 88.1779 100.497 88.4324 101.272 88.4324Z"
      fill="#6C6C70"
    />
    <path d="M113.984 90.4244V66.6532H116.806V90.4244H113.984Z" fill="#6C6C70" />
    <path
      d="M129.292 90.4244V67.5164H143.202V70.0728H132.213V78.6384H141.443V81.1948H132.213V90.4244H129.292Z"
      fill="#6C6C70"
    />
    <path
      d="M146.402 90.4244V73.8244H149.191V90.4244H146.402ZM146.402 70.3052V67.2176H149.191V70.3052H146.402Z"
      fill="#6C6C70"
    />
    <path
      d="M153.826 90.4244V73.8244H156.615V74.9532C156.991 74.7319 157.456 74.5105 158.01 74.2892C158.585 74.0679 159.183 73.8797 159.802 73.7248C160.444 73.5699 161.053 73.4924 161.628 73.4924C162.779 73.4924 163.72 73.6473 164.45 73.9572C165.203 74.2449 165.778 74.7208 166.177 75.3848C166.597 76.0267 166.885 76.8677 167.04 77.908C167.217 78.9261 167.306 80.1767 167.306 81.6596V90.4244H164.484V81.7592C164.484 80.3648 164.395 79.2471 164.218 78.406C164.063 77.5649 163.742 76.9563 163.255 76.58C162.79 76.2037 162.06 76.0156 161.064 76.0156C160.533 76.0156 159.979 76.082 159.404 76.2148C158.851 76.3255 158.331 76.4693 157.844 76.6464C157.357 76.8235 156.947 77.0005 156.615 77.1776V90.4244H153.826Z"
      fill="#6C6C70"
    />
    <path
      d="M175.474 90.7564C173.903 90.7564 172.707 90.3248 171.888 89.4616C171.092 88.5984 170.693 87.3257 170.693 85.6436C170.693 84.5369 170.881 83.6405 171.258 82.9544C171.656 82.2683 172.243 81.7481 173.017 81.394C173.814 81.0399 174.777 80.8185 175.906 80.73L180.886 80.232V78.8708C180.886 77.7863 180.642 77.0227 180.155 76.58C179.668 76.1373 178.96 75.916 178.03 75.916C177.455 75.916 176.78 75.9381 176.005 75.9824C175.253 76.0267 174.489 76.082 173.714 76.1484C172.962 76.2148 172.298 76.2812 171.722 76.3476L171.59 74.2228C172.121 74.1121 172.763 74.0015 173.515 73.8908C174.29 73.7801 175.087 73.6916 175.906 73.6252C176.747 73.5367 177.51 73.4924 178.196 73.4924C179.48 73.4924 180.532 73.6805 181.35 74.0568C182.169 74.4331 182.767 75.0196 183.143 75.8164C183.542 76.5911 183.741 77.5981 183.741 78.8376V87.1376C183.785 87.6024 183.973 87.9455 184.305 88.1668C184.637 88.366 185.058 88.4988 185.567 88.5652L185.467 90.7564C185.157 90.7564 184.848 90.7453 184.538 90.7232C184.25 90.7011 183.973 90.6679 183.708 90.6236C183.442 90.5793 183.199 90.524 182.977 90.4576C182.645 90.3469 182.346 90.2141 182.081 90.0592C181.815 89.8821 181.561 89.6829 181.317 89.4616C180.897 89.6387 180.366 89.8268 179.724 90.026C179.082 90.2252 178.396 90.3912 177.665 90.524C176.935 90.6789 176.204 90.7564 175.474 90.7564ZM175.972 88.4324C176.548 88.4324 177.145 88.3881 177.765 88.2996C178.385 88.1889 178.971 88.0561 179.524 87.9012C180.078 87.7463 180.532 87.6024 180.886 87.4696V82.2904L176.271 82.722C175.319 82.8105 174.633 83.0983 174.212 83.5852C173.792 84.05 173.582 84.714 173.582 85.5772C173.582 86.4625 173.781 87.1597 174.179 87.6688C174.6 88.1779 175.197 88.4324 175.972 88.4324Z"
      fill="#6C6C70"
    />
    <path
      d="M188.518 90.4244V73.8244H191.307V74.9532C191.683 74.7319 192.148 74.5105 192.701 74.2892C193.276 74.0679 193.874 73.8797 194.494 73.7248C195.136 73.5699 195.744 73.4924 196.32 73.4924C197.471 73.4924 198.411 73.6473 199.142 73.9572C199.894 74.2449 200.47 74.7208 200.868 75.3848C201.289 76.0267 201.576 76.8677 201.731 77.908C201.908 78.9261 201.997 80.1767 201.997 81.6596V90.4244H199.175V81.7592C199.175 80.3648 199.086 79.2471 198.909 78.406C198.754 77.5649 198.434 76.9563 197.947 76.58C197.482 76.2037 196.751 76.0156 195.755 76.0156C195.224 76.0156 194.671 76.082 194.095 76.2148C193.542 76.3255 193.022 76.4693 192.535 76.6464C192.048 76.8235 191.639 77.0005 191.307 77.1776V90.4244H188.518Z"
      fill="#6C6C70"
    />
    <path
      d="M212.655 90.7564C210.885 90.7564 209.49 90.4687 208.472 89.8932C207.476 89.2956 206.768 88.3439 206.347 87.038C205.949 85.7321 205.75 84.0057 205.75 81.8588C205.75 79.8447 205.982 78.2179 206.447 76.9784C206.912 75.7389 207.653 74.8536 208.671 74.3224C209.712 73.7691 211.051 73.4924 212.689 73.4924C213.087 73.4924 213.563 73.5256 214.116 73.592C214.67 73.6363 215.234 73.7027 215.809 73.7912C216.407 73.8576 216.916 73.924 217.337 73.9904L217.237 76.3144C216.839 76.2701 216.396 76.2259 215.909 76.1816C215.422 76.1373 214.935 76.1041 214.448 76.082C213.983 76.0377 213.596 76.0156 213.286 76.0156C212.069 76.0156 211.117 76.2148 210.431 76.6132C209.767 76.9895 209.302 77.5981 209.037 78.4392C208.771 79.2803 208.638 80.4201 208.638 81.8588C208.638 83.4303 208.749 84.6808 208.97 85.6104C209.214 86.54 209.667 87.2151 210.331 87.6356C210.995 88.034 211.98 88.2332 213.286 88.2332C213.596 88.2332 213.995 88.2221 214.481 88.2C214.968 88.1557 215.455 88.1115 215.942 88.0672C216.451 88.0229 216.905 87.9897 217.303 87.9676L217.37 90.2584C216.927 90.3469 216.407 90.4244 215.809 90.4908C215.234 90.5572 214.659 90.6125 214.083 90.6568C213.53 90.7232 213.054 90.7564 212.655 90.7564Z"
      fill="#6C6C70"
    />
    <path
      d="M221.005 90.4244V73.8244H223.793V90.4244H221.005ZM221.005 70.3052V67.2176H223.793V70.3052H221.005Z"
      fill="#6C6C70"
    />
    <path
      d="M228.429 90.4244V73.8244H231.218V74.9532C231.594 74.7319 232.059 74.5105 232.612 74.2892C233.188 74.0679 233.785 73.8797 234.405 73.7248C235.047 73.5699 235.656 73.4924 236.231 73.4924C237.382 73.4924 238.323 73.6473 239.053 73.9572C239.806 74.2449 240.381 74.7208 240.78 75.3848C241.2 76.0267 241.488 76.8677 241.643 77.908C241.82 78.9261 241.908 80.1767 241.908 81.6596V90.4244H239.086V81.7592C239.086 80.3648 238.998 79.2471 238.821 78.406C238.666 77.5649 238.345 76.9563 237.858 76.58C237.393 76.2037 236.663 76.0156 235.667 76.0156C235.136 76.0156 234.582 76.082 234.007 76.2148C233.453 76.3255 232.933 76.4693 232.446 76.6464C231.959 76.8235 231.55 77.0005 231.218 77.1776V90.4244H228.429Z"
      fill="#6C6C70"
    />
    <path
      d="M252.866 98.1932C251.139 98.1932 249.745 98.0493 248.682 97.7616C247.62 97.4739 246.834 96.9648 246.325 96.2344C245.838 95.504 245.595 94.508 245.595 93.2464C245.595 92.6045 245.694 92.0512 245.894 91.5864C246.093 91.1437 246.381 90.7343 246.757 90.358C247.133 89.9596 247.609 89.5501 248.184 89.1296C247.897 88.9083 247.664 88.5984 247.487 88.2C247.332 87.7795 247.255 87.3147 247.255 86.8056C247.255 86.6507 247.31 86.4183 247.421 86.1084C247.554 85.7985 247.709 85.4776 247.886 85.1456C248.085 84.7915 248.262 84.4705 248.417 84.1828C247.952 83.9615 247.52 83.6627 247.122 83.2864C246.746 82.888 246.436 82.3568 246.192 81.6928C245.949 81.0288 245.827 80.1877 245.827 79.1696C245.827 77.7973 246.082 76.7017 246.591 75.8828C247.122 75.0417 247.863 74.4331 248.815 74.0568C249.767 73.6805 250.874 73.4924 252.135 73.4924C252.733 73.4924 253.364 73.5367 254.028 73.6252C254.692 73.7137 255.212 73.8023 255.588 73.8908L260.601 73.7912V76.082L257.547 76.0156C257.857 76.3255 258.111 76.7349 258.31 77.244C258.51 77.7309 258.609 78.3728 258.609 79.1696C258.609 80.6304 258.366 81.7703 257.879 82.5892C257.392 83.4081 256.661 83.9836 255.688 84.3156C254.736 84.6476 253.53 84.8136 252.069 84.8136C251.914 84.8136 251.648 84.8025 251.272 84.7804C250.918 84.7361 250.652 84.7029 250.475 84.6808C250.365 84.9685 250.243 85.3116 250.11 85.71C249.977 86.0863 249.911 86.3408 249.911 86.4736C249.911 86.8056 249.944 87.0601 250.01 87.2372C250.099 87.4143 250.276 87.5581 250.542 87.6688C250.807 87.7795 251.206 87.8569 251.737 87.9012C252.268 87.9233 252.998 87.9344 253.928 87.9344C255.499 87.9344 256.761 88.0672 257.713 88.3328C258.665 88.5984 259.34 89.0853 259.738 89.7936C260.159 90.4797 260.369 91.4868 260.369 92.8148C260.369 94.7183 259.705 96.0905 258.377 96.9316C257.071 97.7727 255.234 98.1932 252.866 98.1932ZM252.866 95.8692C254.481 95.8692 255.665 95.6368 256.418 95.172C257.171 94.7293 257.547 93.9989 257.547 92.9808C257.547 92.2061 257.414 91.6307 257.148 91.2544C256.905 90.9003 256.495 90.6568 255.92 90.524C255.345 90.4133 254.57 90.358 253.596 90.358C253.375 90.358 253.087 90.358 252.733 90.358C252.401 90.3359 252.047 90.3248 251.67 90.3248C251.316 90.3027 250.984 90.2805 250.674 90.2584C250.387 90.2363 250.187 90.2252 250.077 90.2252C249.656 90.5351 249.313 90.8228 249.048 91.0884C248.782 91.354 248.594 91.6307 248.483 91.9184C248.395 92.2061 248.35 92.5603 248.35 92.9808C248.35 93.6669 248.472 94.2203 248.716 94.6408C248.981 95.0613 249.446 95.3712 250.11 95.5704C250.774 95.7696 251.693 95.8692 252.866 95.8692ZM252.135 82.5892C253.463 82.5892 254.404 82.3347 254.957 81.8256C255.511 81.2944 255.787 80.4091 255.787 79.1696C255.787 77.9301 255.511 77.0448 254.957 76.5136C254.404 75.9824 253.463 75.7168 252.135 75.7168C250.896 75.7168 249.999 75.9824 249.446 76.5136C248.915 77.0448 248.649 77.9301 248.649 79.1696C248.649 80.4091 248.915 81.2944 249.446 81.8256C249.999 82.3347 250.896 82.5892 252.135 82.5892Z"
      fill="#6C6C70"
    />
    <path
      d="M277.611 90.7232C276.902 90.7232 276.094 90.6789 275.187 90.5904C274.302 90.524 273.416 90.4355 272.531 90.3248C271.646 90.192 270.871 90.0813 270.207 89.9928L270.473 87.6024C271.137 87.6688 271.889 87.7463 272.73 87.8348C273.593 87.9233 274.445 88.0008 275.286 88.0672C276.128 88.1336 276.847 88.1668 277.445 88.1668C278.485 88.1668 279.348 88.0119 280.034 87.702C280.72 87.3921 281.229 86.9273 281.561 86.3076C281.915 85.6657 282.092 84.8468 282.092 83.8508C282.092 83.054 281.938 82.4121 281.628 81.9252C281.318 81.4383 280.798 81.062 280.067 80.7964C279.359 80.5087 278.396 80.2431 277.179 79.9996C275.962 79.7561 274.899 79.4795 273.992 79.1696C273.106 78.8597 272.365 78.4613 271.767 77.9744C271.17 77.4875 270.727 76.8788 270.439 76.1484C270.152 75.418 270.008 74.5105 270.008 73.426C270.008 71.8988 270.318 70.6815 270.937 69.774C271.557 68.8444 272.431 68.1693 273.56 67.7488C274.689 67.3283 276.006 67.118 277.511 67.118C278.175 67.118 278.939 67.1623 279.802 67.2508C280.665 67.3172 281.517 67.4057 282.358 67.5164C283.199 67.6049 283.919 67.7045 284.516 67.8152L284.317 70.2388C283.653 70.1503 282.9 70.0728 282.059 70.0064C281.218 69.9179 280.399 69.8404 279.603 69.774C278.828 69.7076 278.197 69.6744 277.71 69.6744C276.692 69.6744 275.829 69.8072 275.121 70.0728C274.412 70.3163 273.87 70.7036 273.494 71.2348C273.14 71.7439 272.962 72.3968 272.962 73.1936C272.962 74.1453 273.14 74.8647 273.494 75.3516C273.848 75.8385 274.423 76.2259 275.22 76.5136C276.017 76.7792 277.057 77.0559 278.341 77.3436C279.514 77.6313 280.521 77.9301 281.362 78.24C282.203 78.5499 282.9 78.9372 283.454 79.402C284.007 79.8447 284.405 80.4091 284.649 81.0952C284.914 81.7813 285.047 82.6224 285.047 83.6184C285.047 85.3227 284.737 86.6949 284.118 87.7352C283.52 88.7755 282.668 89.5391 281.561 90.026C280.455 90.4908 279.138 90.7232 277.611 90.7232Z"
      fill="#6C6C70"
    />
    <path
      d="M293.943 90.7564C292.527 90.7564 291.431 90.4687 290.656 89.8932C289.904 89.3177 289.384 88.4213 289.096 87.204C288.83 85.9645 288.697 84.3931 288.697 82.4896V73.8244H291.486V82.4564C291.486 83.8729 291.553 85.0017 291.685 85.8428C291.84 86.6839 292.15 87.2925 292.615 87.6688C293.102 88.0451 293.81 88.2332 294.74 88.2332C295.669 88.2332 296.522 88.1115 297.296 87.868C298.071 87.6024 298.691 87.3368 299.155 87.0712V73.8244H301.978V90.4244H299.155V89.2956C298.447 89.694 297.684 90.0371 296.865 90.3248C296.046 90.6125 295.072 90.7564 293.943 90.7564Z"
      fill="#6C6C70"
    />
    <path
      d="M306.598 97.7284V73.8244H309.387V74.9864C309.741 74.7651 310.184 74.5437 310.715 74.3224C311.246 74.0789 311.811 73.8797 312.408 73.7248C313.028 73.5699 313.626 73.4924 314.201 73.4924C315.64 73.4924 316.802 73.7912 317.687 74.3888C318.572 74.9643 319.225 75.8828 319.646 77.1444C320.089 78.3839 320.31 79.9775 320.31 81.9252C320.31 84.0943 320.055 85.8317 319.546 87.1376C319.059 88.4213 318.274 89.3509 317.189 89.9264C316.127 90.4797 314.743 90.7564 313.039 90.7564C312.375 90.7564 311.689 90.7121 310.981 90.6236C310.295 90.5351 309.763 90.4576 309.387 90.3912V97.7284H306.598ZM312.807 88.2996C313.98 88.2996 314.898 88.0893 315.562 87.6688C316.226 87.2261 316.691 86.54 316.957 85.6104C317.244 84.6587 317.388 83.4303 317.388 81.9252C317.388 79.7561 317.067 78.2289 316.425 77.3436C315.784 76.4361 314.887 75.9824 313.736 75.9824C313.227 75.9824 312.696 76.0488 312.143 76.1816C311.611 76.3144 311.102 76.4693 310.615 76.6464C310.129 76.8235 309.719 77.0116 309.387 77.2108V88.0008C309.741 88.0451 310.239 88.1115 310.881 88.2C311.545 88.2664 312.187 88.2996 312.807 88.2996Z"
      fill="#6C6C70"
    />
    <path
      d="M324.203 97.7284V73.8244H326.992V74.9864C327.346 74.7651 327.789 74.5437 328.32 74.3224C328.851 74.0789 329.416 73.8797 330.013 73.7248C330.633 73.5699 331.231 73.4924 331.806 73.4924C333.245 73.4924 334.407 73.7912 335.292 74.3888C336.177 74.9643 336.83 75.8828 337.251 77.1444C337.694 78.3839 337.915 79.9775 337.915 81.9252C337.915 84.0943 337.66 85.8317 337.151 87.1376C336.664 88.4213 335.879 89.3509 334.794 89.9264C333.732 90.4797 332.348 90.7564 330.644 90.7564C329.98 90.7564 329.294 90.7121 328.586 90.6236C327.9 90.5351 327.368 90.4576 326.992 90.3912V97.7284H324.203ZM330.412 88.2996C331.585 88.2996 332.503 88.0893 333.167 87.6688C333.831 87.2261 334.296 86.54 334.562 85.6104C334.849 84.6587 334.993 83.4303 334.993 81.9252C334.993 79.7561 334.672 78.2289 334.031 77.3436C333.389 76.4361 332.492 75.9824 331.341 75.9824C330.832 75.9824 330.301 76.0488 329.748 76.1816C329.217 76.3144 328.707 76.4693 328.221 76.6464C327.734 76.8235 327.324 77.0116 326.992 77.2108V88.0008C327.346 88.0451 327.844 88.1115 328.486 88.2C329.15 88.2664 329.792 88.2996 330.412 88.2996Z"
      fill="#6C6C70"
    />
    <path
      d="M348.282 90.7564C346.423 90.7564 344.962 90.4355 343.9 89.7936C342.86 89.1517 342.129 88.1889 341.709 86.9052C341.288 85.5993 341.078 83.9393 341.078 81.9252C341.078 80.0217 341.31 78.4503 341.775 77.2108C342.24 75.9492 343.004 75.0196 344.066 74.422C345.128 73.8023 346.534 73.4924 348.282 73.4924C350.053 73.4924 351.47 73.8023 352.532 74.422C353.594 75.0196 354.358 75.9492 354.823 77.2108C355.288 78.4503 355.52 80.0217 355.52 81.9252C355.52 83.9393 355.299 85.5993 354.856 86.9052C354.435 88.1889 353.705 89.1517 352.665 89.7936C351.625 90.4355 350.164 90.7564 348.282 90.7564ZM348.282 88.3328C349.522 88.3328 350.451 88.1225 351.071 87.702C351.691 87.2593 352.1 86.5621 352.3 85.6104C352.499 84.6587 352.598 83.4303 352.598 81.9252C352.598 80.4423 352.466 79.2581 352.2 78.3728C351.957 77.4875 351.525 76.8567 350.905 76.4804C350.285 76.1041 349.411 75.916 348.282 75.916C347.176 75.916 346.301 76.1041 345.66 76.4804C345.04 76.8567 344.597 77.4875 344.332 78.3728C344.088 79.2581 343.966 80.4423 343.966 81.9252C343.966 83.4303 344.066 84.6587 344.265 85.6104C344.464 86.5621 344.874 87.2593 345.494 87.702C346.113 88.1225 347.043 88.3328 348.282 88.3328Z"
      fill="#6C6C70"
    />
    <path
      d="M359.446 90.4244V73.8244H362.235V76.0156C362.655 75.7279 363.175 75.418 363.795 75.086C364.437 74.7319 365.134 74.3999 365.887 74.09C366.639 73.7801 367.392 73.5699 368.144 73.4592V76.2812C367.414 76.4361 366.672 76.6353 365.92 76.8788C365.167 77.1223 364.47 77.3879 363.828 77.6756C363.186 77.9633 362.655 78.2179 362.235 78.4392V90.4244H359.446Z"
      fill="#6C6C70"
    />
    <path
      d="M376.466 90.7896C375.315 90.7896 374.397 90.6125 373.711 90.2584C373.024 89.9043 372.526 89.2956 372.216 88.4324C371.929 87.5471 371.785 86.3076 371.785 84.714V76.248H369.494V73.8244H371.785V68.8444H374.607V73.8244H379.686V76.248H374.607V83.9172C374.607 85.046 374.651 85.9313 374.74 86.5732C374.85 87.1929 375.061 87.6356 375.37 87.9012C375.702 88.1447 376.212 88.2664 376.898 88.2664C377.119 88.2664 377.396 88.2553 377.728 88.2332C378.082 88.2111 378.436 88.1889 378.79 88.1668C379.166 88.1225 379.487 88.0893 379.753 88.0672L379.919 90.4244C379.609 90.4687 379.233 90.5129 378.79 90.5572C378.37 90.6236 377.949 90.6789 377.529 90.7232C377.108 90.7675 376.754 90.7896 376.466 90.7896Z"
      fill="#6C6C70"
    />
    <path
      d="M396.761 90.7232C396.053 90.7232 395.245 90.6789 394.337 90.5904C393.452 90.524 392.567 90.4355 391.681 90.3248C390.796 90.192 390.021 90.0813 389.357 89.9928L389.623 87.6024C390.287 87.6688 391.039 87.7463 391.88 87.8348C392.744 87.9233 393.596 88.0008 394.437 88.0672C395.278 88.1336 395.997 88.1668 396.595 88.1668C397.635 88.1668 398.498 88.0119 399.185 87.702C399.871 87.3921 400.38 86.9273 400.712 86.3076C401.066 85.6657 401.243 84.8468 401.243 83.8508C401.243 83.054 401.088 82.4121 400.778 81.9252C400.468 81.4383 399.948 81.062 399.218 80.7964C398.509 80.5087 397.547 80.2431 396.329 79.9996C395.112 79.7561 394.05 79.4795 393.142 79.1696C392.257 78.8597 391.515 78.4613 390.918 77.9744C390.32 77.4875 389.877 76.8788 389.59 76.1484C389.302 75.418 389.158 74.5105 389.158 73.426C389.158 71.8988 389.468 70.6815 390.088 69.774C390.707 68.8444 391.582 68.1693 392.71 67.7488C393.839 67.3283 395.156 67.118 396.661 67.118C397.325 67.118 398.089 67.1623 398.952 67.2508C399.815 67.3172 400.667 67.4057 401.508 67.5164C402.35 67.6049 403.069 67.7045 403.667 67.8152L403.467 70.2388C402.803 70.1503 402.051 70.0728 401.21 70.0064C400.369 69.9179 399.55 69.8404 398.753 69.774C397.978 69.7076 397.347 69.6744 396.861 69.6744C395.842 69.6744 394.979 69.8072 394.271 70.0728C393.563 70.3163 393.02 70.7036 392.644 71.2348C392.29 71.7439 392.113 72.3968 392.113 73.1936C392.113 74.1453 392.29 74.8647 392.644 75.3516C392.998 75.8385 393.574 76.2259 394.37 76.5136C395.167 76.7792 396.208 77.0559 397.491 77.3436C398.664 77.6313 399.671 77.9301 400.512 78.24C401.354 78.5499 402.051 78.9372 402.604 79.402C403.157 79.8447 403.556 80.4091 403.799 81.0952C404.065 81.7813 404.198 82.6224 404.198 83.6184C404.198 85.3227 403.888 86.6949 403.268 87.7352C402.671 88.7755 401.818 89.5391 400.712 90.026C399.605 90.4908 398.288 90.7232 396.761 90.7232Z"
      fill="#6C6C70"
    />
    <path
      d="M413.99 90.7564C412.308 90.7564 410.98 90.4355 410.006 89.7936C409.032 89.1517 408.324 88.2 407.881 86.9384C407.461 85.6768 407.25 84.1053 407.25 82.224C407.25 80.1435 407.538 78.4613 408.113 77.1776C408.689 75.8939 409.497 74.9643 410.537 74.3888C411.599 73.7912 412.861 73.4924 414.322 73.4924C416.579 73.4924 418.273 74.1121 419.401 75.3516C420.552 76.5689 421.128 78.5277 421.128 81.228L420.995 83.2864H410.139C410.161 84.9243 410.471 86.1748 411.068 87.038C411.666 87.8791 412.75 88.2996 414.322 88.2996C414.942 88.2996 415.628 88.2885 416.38 88.2664C417.133 88.2221 417.874 88.1779 418.605 88.1336C419.357 88.0893 419.988 88.0451 420.497 88.0008L420.563 90.192C420.032 90.2805 419.379 90.3691 418.605 90.4576C417.83 90.5461 417.033 90.6125 416.214 90.6568C415.417 90.7232 414.676 90.7564 413.99 90.7564ZM410.139 81.062H418.273C418.273 79.1143 417.963 77.7531 417.343 76.9784C416.723 76.1816 415.716 75.7832 414.322 75.7832C413.414 75.7832 412.651 75.9603 412.031 76.3144C411.434 76.6685 410.969 77.2329 410.637 78.0076C410.305 78.7823 410.139 79.8004 410.139 81.062Z"
      fill="#6C6C70"
    />
    <path
      d="M424.841 90.4244V73.8244H427.63V76.0156C428.05 75.7279 428.57 75.418 429.19 75.086C429.832 74.7319 430.529 74.3999 431.282 74.09C432.034 73.7801 432.787 73.5699 433.539 73.4592V76.2812C432.809 76.4361 432.067 76.6353 431.315 76.8788C430.562 77.1223 429.865 77.3879 429.223 77.6756C428.581 77.9633 428.05 78.2179 427.63 78.4392V90.4244H424.841Z"
      fill="#6C6C70"
    />
    <path
      d="M439.371 90.4244L434.823 73.8244H437.877L441.529 88.0008H442.724L446.509 73.8244H449.431L444.882 90.4244H439.371Z"
      fill="#6C6C70"
    />
    <path
      d="M452.497 90.4244V73.8244H455.285V90.4244H452.497ZM452.497 70.3052V67.2176H455.285V70.3052H452.497Z"
      fill="#6C6C70"
    />
    <path
      d="M466.13 90.7564C464.359 90.7564 462.965 90.4687 461.947 89.8932C460.951 89.2956 460.242 88.3439 459.822 87.038C459.423 85.7321 459.224 84.0057 459.224 81.8588C459.224 79.8447 459.456 78.2179 459.921 76.9784C460.386 75.7389 461.128 74.8536 462.146 74.3224C463.186 73.7691 464.525 73.4924 466.163 73.4924C466.561 73.4924 467.037 73.5256 467.59 73.592C468.144 73.6363 468.708 73.7027 469.284 73.7912C469.881 73.8576 470.39 73.924 470.811 73.9904L470.711 76.3144C470.313 76.2701 469.87 76.2259 469.383 76.1816C468.896 76.1373 468.409 76.1041 467.922 76.082C467.458 76.0377 467.07 76.0156 466.76 76.0156C465.543 76.0156 464.591 76.2148 463.905 76.6132C463.241 76.9895 462.776 77.5981 462.511 78.4392C462.245 79.2803 462.112 80.4201 462.112 81.8588C462.112 83.4303 462.223 84.6808 462.444 85.6104C462.688 86.54 463.142 87.2151 463.806 87.6356C464.47 88.034 465.455 88.2332 466.76 88.2332C467.07 88.2332 467.469 88.2221 467.956 88.2C468.443 88.1557 468.93 88.1115 469.417 88.0672C469.926 88.0229 470.379 87.9897 470.778 87.9676L470.844 90.2584C470.401 90.3469 469.881 90.4244 469.284 90.4908C468.708 90.5572 468.133 90.6125 467.557 90.6568C467.004 90.7232 466.528 90.7564 466.13 90.7564Z"
      fill="#6C6C70"
    />
    <path
      d="M474.479 90.4244V73.8244H477.268V90.4244H474.479ZM474.479 70.3052V67.2176H477.268V70.3052H474.479Z"
      fill="#6C6C70"
    />
    <path
      d="M481.903 90.4244V73.8244H484.692V74.9532C485.068 74.7319 485.533 74.5105 486.087 74.2892C486.662 74.0679 487.26 73.8797 487.879 73.7248C488.521 73.5699 489.13 73.4924 489.705 73.4924C490.856 73.4924 491.797 73.6473 492.527 73.9572C493.28 74.2449 493.855 74.7208 494.254 75.3848C494.674 76.0267 494.962 76.8677 495.117 77.908C495.294 78.9261 495.383 80.1767 495.383 81.6596V90.4244H492.561V81.7592C492.561 80.3648 492.472 79.2471 492.295 78.406C492.14 77.5649 491.819 76.9563 491.332 76.58C490.867 76.2037 490.137 76.0156 489.141 76.0156C488.61 76.0156 488.056 76.082 487.481 76.2148C486.928 76.3255 486.408 76.4693 485.921 76.6464C485.434 76.8235 485.024 77.0005 484.692 77.1776V90.4244H481.903Z"
      fill="#6C6C70"
    />
    <path
      d="M506.34 98.1932C504.613 98.1932 503.219 98.0493 502.157 97.7616C501.094 97.4739 500.309 96.9648 499.799 96.2344C499.312 95.504 499.069 94.508 499.069 93.2464C499.069 92.6045 499.169 92.0512 499.368 91.5864C499.567 91.1437 499.855 90.7343 500.231 90.358C500.607 89.9596 501.083 89.5501 501.659 89.1296C501.371 88.9083 501.138 88.5984 500.961 88.2C500.806 87.7795 500.729 87.3147 500.729 86.8056C500.729 86.6507 500.784 86.4183 500.895 86.1084C501.028 85.7985 501.183 85.4776 501.36 85.1456C501.559 84.7915 501.736 84.4705 501.891 84.1828C501.426 83.9615 500.995 83.6627 500.596 83.2864C500.22 82.888 499.91 82.3568 499.667 81.6928C499.423 81.0288 499.301 80.1877 499.301 79.1696C499.301 77.7973 499.556 76.7017 500.065 75.8828C500.596 75.0417 501.338 74.4331 502.289 74.0568C503.241 73.6805 504.348 73.4924 505.609 73.4924C506.207 73.4924 506.838 73.5367 507.502 73.6252C508.166 73.7137 508.686 73.8023 509.062 73.8908L514.075 73.7912V76.082L511.021 76.0156C511.331 76.3255 511.585 76.7349 511.785 77.244C511.984 77.7309 512.083 78.3728 512.083 79.1696C512.083 80.6304 511.84 81.7703 511.353 82.5892C510.866 83.4081 510.136 83.9836 509.162 84.3156C508.21 84.6476 507.004 84.8136 505.543 84.8136C505.388 84.8136 505.123 84.8025 504.746 84.7804C504.392 84.7361 504.126 84.7029 503.949 84.6808C503.839 84.9685 503.717 85.3116 503.584 85.71C503.451 86.0863 503.385 86.3408 503.385 86.4736C503.385 86.8056 503.418 87.0601 503.485 87.2372C503.573 87.4143 503.75 87.5581 504.016 87.6688C504.281 87.7795 504.68 87.8569 505.211 87.9012C505.742 87.9233 506.473 87.9344 507.402 87.9344C508.974 87.9344 510.235 88.0672 511.187 88.3328C512.139 88.5984 512.814 89.0853 513.212 89.7936C513.633 90.4797 513.843 91.4868 513.843 92.8148C513.843 94.7183 513.179 96.0905 511.851 96.9316C510.545 97.7727 508.708 98.1932 506.34 98.1932ZM506.34 95.8692C507.956 95.8692 509.14 95.6368 509.892 95.172C510.645 94.7293 511.021 93.9989 511.021 92.9808C511.021 92.2061 510.888 91.6307 510.623 91.2544C510.379 90.9003 509.97 90.6568 509.394 90.524C508.819 90.4133 508.044 90.358 507.07 90.358C506.849 90.358 506.561 90.358 506.207 90.358C505.875 90.3359 505.521 90.3248 505.145 90.3248C504.791 90.3027 504.459 90.2805 504.149 90.2584C503.861 90.2363 503.662 90.2252 503.551 90.2252C503.131 90.5351 502.787 90.8228 502.522 91.0884C502.256 91.354 502.068 91.6307 501.957 91.9184C501.869 92.2061 501.825 92.5603 501.825 92.9808C501.825 93.6669 501.946 94.2203 502.19 94.6408C502.455 95.0613 502.92 95.3712 503.584 95.5704C504.248 95.7696 505.167 95.8692 506.34 95.8692ZM505.609 82.5892C506.937 82.5892 507.878 82.3347 508.431 81.8256C508.985 81.2944 509.261 80.4091 509.261 79.1696C509.261 77.9301 508.985 77.0448 508.431 76.5136C507.878 75.9824 506.937 75.7168 505.609 75.7168C504.37 75.7168 503.474 75.9824 502.92 76.5136C502.389 77.0448 502.123 77.9301 502.123 79.1696C502.123 80.4091 502.389 81.2944 502.92 81.8256C503.474 82.3347 504.37 82.5892 505.609 82.5892Z"
      fill="#6C6C70"
    />
    <path
      d="M532.313 90.7564C530.565 90.7564 529.137 90.5129 528.03 90.026C526.946 89.5169 526.083 88.7644 525.441 87.7684C524.821 86.7724 524.389 85.544 524.146 84.0832C523.925 82.6224 523.814 80.9292 523.814 79.0036C523.814 77.0559 523.925 75.3405 524.146 73.8576C524.389 72.3747 524.821 71.1352 525.441 70.1392C526.083 69.1432 526.957 68.4017 528.064 67.9148C529.17 67.4057 530.587 67.1512 532.313 67.1512C533.11 67.1512 533.896 67.1955 534.67 67.284C535.467 67.3504 536.209 67.45 536.895 67.5828C537.603 67.6935 538.201 67.8041 538.688 67.9148L538.588 70.3384C538.101 70.2499 537.503 70.1613 536.795 70.0728C536.109 69.9843 535.401 69.9179 534.67 69.8736C533.94 69.8072 533.276 69.774 532.678 69.774C531.439 69.774 530.432 69.9511 529.657 70.3052C528.905 70.6593 528.318 71.2237 527.898 71.9984C527.499 72.7509 527.222 73.7137 527.068 74.8868C526.913 76.0377 526.835 77.41 526.835 79.0036C526.835 80.5751 526.913 81.9473 527.068 83.1204C527.222 84.2713 527.499 85.2231 527.898 85.9756C528.296 86.706 528.883 87.2593 529.657 87.6356C530.432 87.9897 531.45 88.1668 532.712 88.1668C533.641 88.1668 534.659 88.1115 535.766 88.0008C536.873 87.868 537.813 87.7352 538.588 87.6024L538.688 90.0592C538.156 90.1699 537.537 90.2805 536.828 90.3912C536.12 90.5019 535.368 90.5904 534.571 90.6568C533.796 90.7232 533.044 90.7564 532.313 90.7564Z"
      fill="#6C6C70"
    />
    <path
      d="M548.455 90.7564C546.596 90.7564 545.135 90.4355 544.073 89.7936C543.032 89.1517 542.302 88.1889 541.881 86.9052C541.461 85.5993 541.251 83.9393 541.251 81.9252C541.251 80.0217 541.483 78.4503 541.948 77.2108C542.413 75.9492 543.176 75.0196 544.239 74.422C545.301 73.8023 546.707 73.4924 548.455 73.4924C550.226 73.4924 551.642 73.8023 552.705 74.422C553.767 75.0196 554.531 75.9492 554.995 77.2108C555.46 78.4503 555.693 80.0217 555.693 81.9252C555.693 83.9393 555.471 85.5993 555.029 86.9052C554.608 88.1889 553.878 89.1517 552.837 89.7936C551.797 90.4355 550.336 90.7564 548.455 90.7564ZM548.455 88.3328C549.695 88.3328 550.624 88.1225 551.244 87.702C551.864 87.2593 552.273 86.5621 552.472 85.6104C552.672 84.6587 552.771 83.4303 552.771 81.9252C552.771 80.4423 552.638 79.2581 552.373 78.3728C552.129 77.4875 551.698 76.8567 551.078 76.4804C550.458 76.1041 549.584 75.916 548.455 75.916C547.348 75.916 546.474 76.1041 545.832 76.4804C545.213 76.8567 544.77 77.4875 544.504 78.3728C544.261 79.2581 544.139 80.4423 544.139 81.9252C544.139 83.4303 544.239 84.6587 544.438 85.6104C544.637 86.5621 545.047 87.2593 545.666 87.702C546.286 88.1225 547.216 88.3328 548.455 88.3328Z"
      fill="#6C6C70"
    />
    <path
      d="M559.619 90.4244V73.8244H562.407V74.9532C562.762 74.7319 563.204 74.5105 563.735 74.2892C564.267 74.0679 564.831 73.8797 565.429 73.7248C566.026 73.5699 566.602 73.4924 567.155 73.4924C568.262 73.4924 569.147 73.6252 569.811 73.8908C570.475 74.1564 571.017 74.5769 571.438 75.1524C571.88 74.9089 572.423 74.6655 573.065 74.422C573.706 74.1564 574.393 73.9351 575.123 73.758C575.853 73.5809 576.573 73.4924 577.281 73.4924C578.41 73.4924 579.339 73.6363 580.07 73.924C580.822 74.2117 581.398 74.6765 581.796 75.3184C582.217 75.9603 582.516 76.8013 582.693 77.8416C582.87 78.8819 582.958 80.1545 582.958 81.6596V90.4244H580.136V81.7924C580.136 80.398 580.048 79.2803 579.871 78.4392C579.716 77.576 579.406 76.9563 578.941 76.58C578.476 76.2037 577.768 76.0156 576.816 76.0156C576.263 76.0156 575.698 76.082 575.123 76.2148C574.57 76.3255 574.049 76.4693 573.563 76.6464C573.076 76.8235 572.688 76.9895 572.401 77.1444C572.533 77.7199 572.622 78.4281 572.666 79.2692C572.733 80.0881 572.766 80.9403 572.766 81.8256V90.4244H569.977V81.9252C569.977 80.4644 569.899 79.3024 569.745 78.4392C569.59 77.576 569.269 76.9563 568.782 76.58C568.317 76.2037 567.598 76.0156 566.624 76.0156C566.093 76.0156 565.55 76.082 564.997 76.2148C564.466 76.3255 563.979 76.4693 563.536 76.6464C563.094 76.8235 562.717 76.9895 562.407 77.1444V90.4244H559.619Z"
      fill="#6C6C70"
    />
    <path
      d="M587.404 97.7284V73.8244H590.193V74.9864C590.547 74.7651 590.99 74.5437 591.521 74.3224C592.052 74.0789 592.617 73.8797 593.214 73.7248C593.834 73.5699 594.431 73.4924 595.007 73.4924C596.446 73.4924 597.608 73.7912 598.493 74.3888C599.378 74.9643 600.031 75.8828 600.452 77.1444C600.894 78.3839 601.116 79.9775 601.116 81.9252C601.116 84.0943 600.861 85.8317 600.352 87.1376C599.865 88.4213 599.079 89.3509 597.995 89.9264C596.933 90.4797 595.549 90.7564 593.845 90.7564C593.181 90.7564 592.495 90.7121 591.786 90.6236C591.1 90.5351 590.569 90.4576 590.193 90.3912V97.7284H587.404ZM593.612 88.2996C594.786 88.2996 595.704 88.0893 596.368 87.6688C597.032 87.2261 597.497 86.54 597.763 85.6104C598.05 84.6587 598.194 83.4303 598.194 81.9252C598.194 79.7561 597.873 78.2289 597.231 77.3436C596.589 76.4361 595.693 75.9824 594.542 75.9824C594.033 75.9824 593.502 76.0488 592.948 76.1816C592.417 76.3144 591.908 76.4693 591.421 76.6464C590.934 76.8235 590.525 77.0116 590.193 77.2108V88.0008C590.547 88.0451 591.045 88.1115 591.687 88.2C592.351 88.2664 592.993 88.2996 593.612 88.2996Z"
      fill="#6C6C70"
    />
    <path
      d="M608.728 90.7564C607.156 90.7564 605.961 90.3248 605.142 89.4616C604.345 88.5984 603.947 87.3257 603.947 85.6436C603.947 84.5369 604.135 83.6405 604.511 82.9544C604.91 82.2683 605.496 81.7481 606.271 81.394C607.068 81.0399 608.03 80.8185 609.159 80.73L614.139 80.232V78.8708C614.139 77.7863 613.896 77.0227 613.409 76.58C612.922 76.1373 612.214 75.916 611.284 75.916C610.709 75.916 610.033 75.9381 609.259 75.9824C608.506 76.0267 607.743 76.082 606.968 76.1484C606.215 76.2148 605.551 76.2812 604.976 76.3476L604.843 74.2228C605.374 74.1121 606.016 74.0015 606.769 73.8908C607.543 73.7801 608.34 73.6916 609.159 73.6252C610 73.5367 610.764 73.4924 611.45 73.4924C612.734 73.4924 613.785 73.6805 614.604 74.0568C615.423 74.4331 616.021 75.0196 616.397 75.8164C616.795 76.5911 616.994 77.5981 616.994 78.8376V87.1376C617.039 87.6024 617.227 87.9455 617.559 88.1668C617.891 88.366 618.311 88.4988 618.82 88.5652L618.721 90.7564C618.411 90.7564 618.101 90.7453 617.791 90.7232C617.503 90.7011 617.227 90.6679 616.961 90.6236C616.696 90.5793 616.452 90.524 616.231 90.4576C615.899 90.3469 615.6 90.2141 615.334 90.0592C615.069 89.8821 614.814 89.6829 614.571 89.4616C614.15 89.6387 613.619 89.8268 612.977 90.026C612.335 90.2252 611.649 90.3912 610.919 90.524C610.188 90.6789 609.458 90.7564 608.728 90.7564ZM609.226 88.4324C609.801 88.4324 610.399 88.3881 611.018 88.2996C611.638 88.1889 612.225 88.0561 612.778 87.9012C613.331 87.7463 613.785 87.6024 614.139 87.4696V82.2904L609.524 82.722C608.573 82.8105 607.887 83.0983 607.466 83.5852C607.045 84.05 606.835 84.714 606.835 85.5772C606.835 86.4625 607.034 87.1597 607.433 87.6688C607.853 88.1779 608.451 88.4324 609.226 88.4324Z"
      fill="#6C6C70"
    />
    <path
      d="M621.771 90.4244V73.8244H624.56V74.9532C624.936 74.7319 625.401 74.5105 625.955 74.2892C626.53 74.0679 627.128 73.8797 627.747 73.7248C628.389 73.5699 628.998 73.4924 629.573 73.4924C630.724 73.4924 631.665 73.6473 632.395 73.9572C633.148 74.2449 633.723 74.7208 634.122 75.3848C634.542 76.0267 634.83 76.8677 634.985 77.908C635.162 78.9261 635.25 80.1767 635.25 81.6596V90.4244H632.429V81.7592C632.429 80.3648 632.34 79.2471 632.163 78.406C632.008 77.5649 631.687 76.9563 631.2 76.58C630.735 76.2037 630.005 76.0156 629.009 76.0156C628.478 76.0156 627.924 76.082 627.349 76.2148C626.796 76.3255 626.275 76.4693 625.789 76.6464C625.302 76.8235 624.892 77.0005 624.56 77.1776V90.4244H621.771Z"
      fill="#6C6C70"
    />
    <path
      d="M642.96 97.7284L645.118 90.4244H642.496L637.914 73.8244H640.769L644.687 88.0008H645.782L649.7 73.8244H652.555L645.849 97.7284H642.96Z"
      fill="#6C6C70"
    />
    <path
      d="M23.8077 41.4244V38.4445H27.9873V41.4244H23.8077ZM13.2813 51.022C11.2173 51.022 9.34683 50.635 7.66983 49.861C6.01863 49.1128 4.70283 48.055 3.72243 46.6876C2.76783 45.346 2.29053 43.8109 2.29053 42.0823C2.29053 41.5405 2.32923 40.831 2.40663 39.9538C2.50983 39.0508 2.62593 38.0575 2.75493 36.9739C2.90973 35.8903 3.07743 34.7938 3.25803 33.6844C3.43863 32.5492 3.60633 31.4785 3.76113 30.4723L7.01193 30.9754C6.72813 32.7298 6.48303 34.3681 6.27663 35.8903C6.07023 37.3867 5.90253 38.6638 5.77353 39.7216C5.67033 40.7794 5.61873 41.5663 5.61873 42.0823C5.61873 43.2433 5.92833 44.2624 6.54753 45.1396C7.19253 46.0426 8.09553 46.7521 9.25653 47.2681C10.4175 47.7841 11.7591 48.0421 13.2813 48.0421C14.8035 48.0421 16.1064 47.797 17.19 47.3068C18.2736 46.8424 19.0992 46.1716 19.6668 45.2944C20.2344 44.443 20.5182 43.4497 20.5182 42.3145V13.7152H23.8077V42.3145C23.8077 44.1205 23.3304 45.6685 22.3758 46.9585C21.447 48.2743 20.1828 49.2805 18.5832 49.9771C17.0094 50.6737 15.2421 51.022 13.2813 51.022ZM27.9873 41.4244V38.4445C28.1421 38.4445 28.2711 38.4832 28.3743 38.5606C28.4775 38.6122 28.5549 38.7025 28.6065 38.8315C28.6581 38.9605 28.6968 39.1153 28.7226 39.2959C28.7484 39.4765 28.7613 39.6829 28.7613 39.9151C28.7613 40.1473 28.7484 40.3666 28.7226 40.573C28.6968 40.7536 28.6581 40.9084 28.6065 41.0374C28.5549 41.1664 28.4775 41.2696 28.3743 41.347C28.2711 41.3986 28.1421 41.4244 27.9873 41.4244Z"
      fill="#6C6C70"
    />
    <path
      d="M27.9913 41.4244V38.4445H34.0672L32.4418 39.7603V22.0744H35.77V41.4244H27.9913ZM27.9913 41.4244C27.8365 41.4244 27.7075 41.3986 27.6043 41.347C27.5011 41.2696 27.4237 41.1664 27.3721 41.0374C27.3205 40.9084 27.2818 40.7536 27.256 40.573C27.2302 40.3666 27.2173 40.1473 27.2173 39.9151C27.2173 39.6055 27.2431 39.3475 27.2947 39.1411C27.3205 38.9347 27.3979 38.767 27.5269 38.638C27.6301 38.509 27.7849 38.4445 27.9913 38.4445V41.4244ZM29.5393 48.5839V44.9848H32.8288V48.5839H29.5393ZM35.0734 48.5839V44.9848H38.3629V48.5839H35.0734Z"
      fill="#6C6C70"
    />
    <path
      d="M57.2968 41.4244V38.4445H61.4764V41.4244H57.2968ZM47.9701 50.1319C47.0413 50.1319 46.0609 50.0545 45.0289 49.8997C44.0227 49.7707 42.9133 49.5772 41.7007 49.3192L42.2038 46.6489C43.5712 46.8295 44.7064 46.9585 45.6094 47.0359C46.5382 47.1133 47.3251 47.152 47.9701 47.152C50.0599 47.152 51.5821 46.7521 52.5367 45.9523C53.4913 45.1525 53.9686 43.9915 53.9686 42.4693V24.0481L55.4779 25.0543H49.1698C47.7508 25.0543 46.6414 25.2349 45.8416 25.5961C45.0676 25.9315 44.5258 26.5765 44.2162 27.5311C43.9066 28.4857 43.7518 29.8918 43.7518 31.7494C43.7518 33.607 43.8937 35.0131 44.1775 35.9677C44.4871 36.9223 45.0418 37.5802 45.8416 37.9414C46.6414 38.2768 47.7508 38.4445 49.1698 38.4445H53.9686V41.4244H49.1698C46.951 41.4244 45.1966 41.089 43.9066 40.4182C42.6424 39.7216 41.7394 38.6638 41.1976 37.2448C40.6816 35.8 40.4236 33.9682 40.4236 31.7494C40.4236 29.5564 40.6816 27.7375 41.1976 26.2927C41.7394 24.8479 42.6424 23.7901 43.9066 23.1193C45.1966 22.4227 46.951 22.0744 49.1698 22.0744H57.2968V42.4306C57.2968 44.056 56.9227 45.4492 56.1745 46.6102C55.4263 47.7712 54.3556 48.6484 52.9624 49.2418C51.5692 49.8352 49.9051 50.1319 47.9701 50.1319ZM61.4764 41.4244V38.4445C61.6312 38.4445 61.7602 38.4832 61.8634 38.5606C61.9666 38.6122 62.044 38.7025 62.0956 38.8315C62.1472 38.9605 62.1859 39.1153 62.2117 39.2959C62.2375 39.4765 62.2504 39.6829 62.2504 39.9151C62.2504 40.1473 62.2375 40.3666 62.2117 40.573C62.1859 40.7536 62.1472 40.9084 62.0956 41.0374C62.044 41.1664 61.9666 41.2696 61.8634 41.347C61.7602 41.3986 61.6312 41.4244 61.4764 41.4244Z"
      fill="#6C6C70"
    />
    <path
      d="M83.5348 41.4244V38.4445H87.7144V41.4244H83.5348ZM61.4764 41.4244C61.3216 41.4244 61.192 41.3986 61.0888 41.347C60.9856 41.2696 60.9082 41.1664 60.8566 41.0374C60.805 40.9084 60.7663 40.7536 60.7405 40.573C60.7147 40.3666 60.7018 40.1473 60.7018 39.9151C60.7018 39.6055 60.7276 39.3475 60.7792 39.1411C60.805 38.9347 60.8824 38.767 61.0114 38.638C61.1146 38.509 61.27 38.4445 61.4764 38.4445V41.4244ZM61.4764 41.4244V38.4445H82.4899L80.2453 40.0699V31.9429C80.2453 30.1885 80.0389 28.8082 79.6261 27.802C79.2391 26.7958 78.5554 26.0863 77.575 25.6735C76.6204 25.2607 75.3175 25.0543 73.6663 25.0543C72.5827 25.0543 71.512 25.1317 70.4542 25.2865C69.3964 25.4155 68.5708 25.609 67.9774 25.867L69.9898 23.8546C69.835 24.4738 69.6802 25.2607 69.5254 26.2153C69.3706 27.1441 69.2416 28.1503 69.1384 29.2339C69.0352 30.2917 68.9836 31.3495 68.9836 32.4073C68.9836 33.4909 69.0352 34.5616 69.1384 35.6194C69.2416 36.6772 69.3577 37.5931 69.4867 38.3671C69.6157 39.1153 69.7189 39.6442 69.7963 39.9538L66.6616 40.8439C66.5584 40.5085 66.4294 39.928 66.2746 39.1024C66.1198 38.2768 65.9779 37.2835 65.8489 36.1225C65.7457 34.9615 65.6941 33.7231 65.6941 32.4073C65.6941 31.1431 65.7586 29.9176 65.8876 28.7308C66.0166 27.5182 66.1585 26.4217 66.3133 25.4413C66.4939 24.4609 66.6616 23.674 66.8164 23.0806C67.384 22.8484 68.287 22.6162 69.5254 22.384C70.7896 22.1518 72.1699 22.0357 73.6663 22.0357C75.8593 22.0357 77.6911 22.3582 79.1617 23.0032C80.6323 23.6482 81.7288 24.6931 82.4512 26.1379C83.1736 27.5827 83.5348 29.5177 83.5348 31.9429V41.4244H61.4764ZM87.7144 41.4244V38.4445C87.8692 38.4445 87.9982 38.4832 88.1014 38.5606C88.2046 38.6122 88.282 38.7025 88.3336 38.8315C88.3852 38.9605 88.4239 39.1153 88.4497 39.2959C88.4755 39.4765 88.4884 39.6829 88.4884 39.9151C88.4884 40.1473 88.4755 40.3666 88.4497 40.573C88.4239 40.7536 88.3852 40.9084 88.3336 41.0374C88.282 41.1664 88.2046 41.2696 88.1014 41.347C87.9982 41.3986 87.8692 41.4244 87.7144 41.4244Z"
      fill="#6C6C70"
    />
    <path
      d="M95.4828 41.4244V38.4445H99.7399V41.4244H95.4828ZM99.7399 41.4244V38.4445C99.8947 38.4445 100.024 38.4832 100.127 38.5606C100.23 38.6122 100.307 38.7025 100.359 38.8315C100.411 38.9605 100.449 39.1153 100.475 39.2959C100.501 39.4765 100.514 39.6829 100.514 39.9151C100.514 40.1473 100.501 40.3666 100.475 40.573C100.449 40.7536 100.411 40.9084 100.359 41.0374C100.307 41.1664 100.23 41.2696 100.127 41.347C100.024 41.3986 99.8947 41.4244 99.7399 41.4244ZM87.7042 41.4244C87.5494 41.4244 87.4204 41.3986 87.3172 41.347C87.214 41.2696 87.1366 41.1664 87.085 41.0374C87.0334 40.9084 86.9947 40.7536 86.9688 40.573C86.943 40.3666 86.9302 40.1473 86.9302 39.9151C86.9302 39.6055 86.956 39.3475 87.0076 39.1411C87.0334 38.9347 87.1108 38.767 87.2398 38.638C87.343 38.509 87.4978 38.4445 87.7042 38.4445V41.4244ZM87.7042 41.4244V38.4445H93.7801L92.1546 39.7603V22.0744H95.4828V41.4244H87.7042ZM89.4456 18.5914V14.9923H92.7352V18.5914H89.4456ZM94.9798 18.5914V14.9923H98.2692V18.5914H94.9798Z"
      fill="#6C6C70"
    />
    <path
      d="M104.366 41.4244V13.7152H107.695V41.4244H104.366ZM99.7223 41.4244V38.4445H104.366V41.4244H99.7223ZM99.7223 41.4244C99.5675 41.4244 99.4385 41.3986 99.3353 41.347C99.2321 41.2696 99.1547 41.1664 99.1031 41.0374C99.0515 40.9084 99.0128 40.7536 98.987 40.573C98.9612 40.3666 98.9483 40.1473 98.9483 39.9151C98.9483 39.6055 98.9741 39.3475 99.0257 39.1411C99.0515 38.9347 99.1289 38.767 99.2579 38.638C99.3611 38.509 99.5159 38.4445 99.7223 38.4445V41.4244Z"
      fill="#6C6C70"
    />
    <path d="M114.283 41.4244V13.7152H117.573V41.4244H114.283Z" fill="#6C6C70" />
    <path
      d="M142.964 41.4244C140.384 41.4244 138.23 41.1277 136.502 40.5343C134.773 39.9151 133.47 38.9863 132.593 37.7479C131.741 36.4837 131.316 34.897 131.316 32.9878C131.316 32.3686 131.354 31.7107 131.432 31.0141C131.535 30.2917 131.651 29.5951 131.78 28.9243C131.909 28.2277 132.025 27.6343 132.128 27.1441C132.232 26.6281 132.296 26.2798 132.322 26.0992L135.534 26.7184C135.457 27.1054 135.341 27.6601 135.186 28.3825C135.057 29.1049 134.928 29.866 134.799 30.6658C134.696 31.4656 134.644 32.2396 134.644 32.9878C134.644 33.9424 134.786 34.768 135.07 35.4646C135.379 36.1612 135.857 36.7288 136.502 37.1674C137.172 37.606 138.037 37.9285 139.094 38.1349C140.178 38.3413 141.481 38.4445 143.003 38.4445H154.265V22.0744H157.554V41.4244H142.964ZM140.101 22.1905V18.5914H143.39V22.1905H140.101ZM145.635 22.1905V18.5914H148.924V22.1905H145.635Z"
      fill="#6C6C70"
    />
    <path
      d="M167.573 41.4244V38.4445H172.255V41.4244H167.573ZM164.283 41.4244V13.7152H167.573V41.4244H164.283ZM172.255 41.4244V38.4445C172.41 38.4445 172.539 38.4832 172.642 38.5606C172.746 38.6122 172.823 38.7025 172.875 38.8315C172.926 38.9605 172.965 39.1153 172.991 39.2959C173.017 39.4765 173.029 39.6829 173.029 39.9151C173.029 40.1473 173.017 40.3666 172.991 40.573C172.965 40.7536 172.926 40.9084 172.875 41.0374C172.823 41.1664 172.746 41.2696 172.642 41.347C172.539 41.3986 172.41 41.4244 172.255 41.4244Z"
      fill="#6C6C70"
    />
    <path
      d="M172.247 41.4244V38.4445H193.261L191.017 40.0699V31.9429C191.017 30.1885 190.81 28.8082 190.397 27.802C190.01 26.7958 189.327 26.0863 188.346 25.6735C187.392 25.2607 186.089 25.0543 184.438 25.0543C183.354 25.0543 182.283 25.1317 181.225 25.2865C180.168 25.4155 179.342 25.609 178.749 25.867L180.761 23.8546C180.606 24.4738 180.451 25.2607 180.297 26.2153C180.142 27.1441 180.013 28.1503 179.91 29.2339C179.806 30.2917 179.755 31.3495 179.755 32.4073C179.755 33.4909 179.806 34.5616 179.91 35.6194C180.013 36.6772 180.129 37.5931 180.258 38.3671C180.387 39.1153 180.49 39.6442 180.568 39.9538L177.433 40.8439C177.33 40.5085 177.201 39.928 177.046 39.1024C176.891 38.2768 176.749 37.2835 176.62 36.1225C176.517 34.9615 176.465 33.7231 176.465 32.4073C176.465 31.1431 176.53 29.9176 176.659 28.7308C176.788 27.5182 176.93 26.4217 177.085 25.4413C177.265 24.4609 177.433 23.674 177.588 23.0806C178.155 22.8484 179.058 22.6162 180.297 22.384C181.561 22.1518 182.941 22.0357 184.438 22.0357C186.631 22.0357 188.462 22.3582 189.933 23.0032C191.404 23.6482 192.5 24.6931 193.222 26.1379C193.945 27.5827 194.306 29.5177 194.306 31.9429V41.4244H172.247ZM172.247 41.4244C172.092 41.4244 171.963 41.3986 171.86 41.347C171.757 41.2696 171.679 41.1664 171.628 41.0374C171.576 40.9084 171.538 40.7536 171.512 40.573C171.486 40.3666 171.473 40.1473 171.473 39.9151C171.473 39.6055 171.499 39.3475 171.55 39.1411C171.576 38.9347 171.654 38.767 171.783 38.638C171.886 38.509 172.041 38.4445 172.247 38.4445V41.4244Z"
      fill="#6C6C70"
    />
    <path
      d="M213.831 41.4244V38.4445H217.972V41.4244H213.831ZM198.738 41.4244V38.4445H213.135L210.503 40.7665V32.6008C210.503 30.6916 210.284 29.1952 209.845 28.1116C209.432 27.0022 208.736 26.2153 207.755 25.7509C206.775 25.2865 205.459 25.0543 203.808 25.0543H200.673V22.0744H203.808C205.924 22.0744 207.73 22.4098 209.226 23.0806C210.722 23.7256 211.858 24.8221 212.632 26.3701C213.431 27.8923 213.831 29.9692 213.831 32.6008V41.4244H198.738ZM217.972 41.4244V38.4445C218.127 38.4445 218.256 38.4832 218.359 38.5606C218.462 38.6122 218.54 38.7025 218.591 38.8315C218.643 38.9605 218.682 39.1153 218.708 39.2959C218.733 39.4765 218.746 39.6829 218.746 39.9151C218.746 40.1473 218.733 40.3666 218.708 40.573C218.682 40.7536 218.643 40.9084 218.591 41.0374C218.54 41.1664 218.462 41.2696 218.359 41.347C218.256 41.3986 218.127 41.4244 217.972 41.4244Z"
      fill="#6C6C70"
    />
    <path
      d="M237.249 41.4244V38.4445H241.429V41.4244H237.249ZM217.977 41.4244C217.822 41.4244 217.693 41.3986 217.59 41.347C217.486 41.2696 217.409 41.1664 217.357 41.0374C217.306 40.9084 217.267 40.7536 217.241 40.573C217.215 40.3666 217.203 40.1473 217.203 39.9151C217.203 39.6055 217.228 39.3475 217.28 39.1411C217.306 38.9347 217.383 38.767 217.512 38.638C217.615 38.509 217.77 38.4445 217.977 38.4445V41.4244ZM217.977 41.4244V38.4445H234.966L233.96 39.3346V30.0853C233.96 28.4083 233.431 27.157 232.373 26.3314C231.341 25.5058 229.767 25.093 227.652 25.093C226.981 25.093 226.026 25.1575 224.788 25.2865C223.575 25.3897 222.285 25.5316 220.918 25.7122L220.531 23.0419C221.589 22.7839 222.737 22.5646 223.975 22.384C225.239 22.1776 226.465 22.0744 227.652 22.0744C229.612 22.0744 231.315 22.384 232.76 23.0032C234.205 23.6224 235.314 24.5254 236.088 25.7122C236.862 26.899 237.249 28.3567 237.249 30.0853V41.4244H217.977ZM241.429 41.4244V38.4445C241.584 38.4445 241.713 38.4832 241.816 38.5606C241.919 38.6122 241.996 38.7025 242.048 38.8315C242.1 38.9605 242.138 39.1153 242.164 39.2959C242.19 39.4765 242.203 39.6829 242.203 39.9151C242.203 40.1473 242.19 40.3666 242.164 40.573C242.138 40.7536 242.1 40.9084 242.048 41.0374C241.996 41.1664 241.919 41.2696 241.816 41.347C241.713 41.3986 241.584 41.4244 241.429 41.4244ZM225.987 19.3654V15.7663H229.316V19.3654H225.987Z"
      fill="#6C6C70"
    />
    <path
      d="M246.09 41.4244V13.7152H249.418V41.4244H246.09ZM241.446 41.4244V38.4445H246.09V41.4244H241.446ZM241.446 41.4244C241.291 41.4244 241.162 41.3986 241.059 41.347C240.956 41.2696 240.878 41.1664 240.827 41.0374C240.775 40.9084 240.736 40.7536 240.711 40.573C240.685 40.3666 240.672 40.1473 240.672 39.9151C240.672 39.6055 240.698 39.3475 240.749 39.1411C240.775 38.9347 240.853 38.767 240.982 38.638C241.085 38.509 241.24 38.4445 241.446 38.4445V41.4244Z"
      fill="#6C6C70"
    />
    <path
      d="M262.382 41.4244V32.2138C262.382 29.7112 262.743 27.7246 263.465 26.254C264.214 24.7576 265.323 23.6869 266.794 23.0419C268.264 22.3969 270.083 22.0744 272.25 22.0744C274.443 22.0744 276.262 22.3969 277.707 23.0419C279.178 23.6869 280.274 24.7576 280.996 26.254C281.745 27.7246 282.119 29.7112 282.119 32.2138V41.4244H262.382ZM265.71 39.8764L264.007 38.4445H280.493L278.829 39.8764V32.2138C278.829 30.4078 278.623 28.9759 278.21 27.9181C277.823 26.8603 277.152 26.125 276.198 25.7122C275.243 25.2736 273.927 25.0543 272.25 25.0543C270.573 25.0543 269.257 25.2736 268.303 25.7122C267.348 26.125 266.677 26.8603 266.29 27.9181C265.903 28.9759 265.71 30.4078 265.71 32.2138V39.8764ZM267.877 18.5914V14.9923H271.167V18.5914H267.877ZM273.411 18.5914V14.9923H276.701V18.5914H273.411Z"
      fill="#6C6C70"
    />
    <path
      d="M300.302 41.4244V38.4445H304.443V41.4244H300.302ZM285.209 41.4244V38.4445H299.605L296.974 40.7665V32.6008C296.974 30.6916 296.754 29.1952 296.316 28.1116C295.903 27.0022 295.206 26.2153 294.226 25.7509C293.245 25.2865 291.93 25.0543 290.278 25.0543H287.144V22.0744H290.278C292.394 22.0744 294.2 22.4098 295.696 23.0806C297.193 23.7256 298.328 24.8221 299.102 26.3701C299.902 27.8923 300.302 29.9692 300.302 32.6008V41.4244H285.209ZM304.443 41.4244V38.4445C304.597 38.4445 304.726 38.4832 304.83 38.5606C304.933 38.6122 305.01 38.7025 305.062 38.8315C305.113 38.9605 305.152 39.1153 305.178 39.2959C305.204 39.4765 305.217 39.6829 305.217 39.9151C305.217 40.1473 305.204 40.3666 305.178 40.573C305.152 40.7536 305.113 40.9084 305.062 41.0374C305.01 41.1664 304.933 41.2696 304.83 41.347C304.726 41.3986 304.597 41.4244 304.443 41.4244Z"
      fill="#6C6C70"
    />
    <path
      d="M304.447 41.4244V38.4445H310.213L308.626 39.7603V22.0744H311.916V41.4244H304.447ZM304.447 41.4244C304.292 41.4244 304.163 41.3986 304.06 41.347C303.957 41.2696 303.879 41.1664 303.828 41.0374C303.776 40.9084 303.737 40.7536 303.712 40.573C303.686 40.3666 303.673 40.1473 303.673 39.9151C303.673 39.6055 303.699 39.3475 303.75 39.1411C303.776 38.9347 303.853 38.767 303.982 38.638C304.086 38.509 304.24 38.4445 304.447 38.4445V41.4244ZM308.626 18.5914V14.9923H311.955V18.5914H308.626Z"
      fill="#6C6C70"
    />
    <path
      d="M321.995 41.4244V38.4445H326.678V41.4244H321.995ZM318.705 41.4244V13.7152H321.995V41.4244H318.705ZM326.678 41.4244V38.4445C326.832 38.4445 326.961 38.4832 327.065 38.5606C327.168 38.6122 327.245 38.7025 327.297 38.8315C327.348 38.9605 327.387 39.1153 327.413 39.2959C327.439 39.4765 327.452 39.6829 327.452 39.9151C327.452 40.1473 327.439 40.3666 327.413 40.573C327.387 40.7536 327.348 40.9084 327.297 41.0374C327.245 41.1664 327.168 41.2696 327.065 41.347C326.961 41.3986 326.832 41.4244 326.678 41.4244Z"
      fill="#6C6C70"
    />
    <path
      d="M356.236 41.4244V38.4445H360.415V41.4244H356.236ZM326.669 41.4244C326.514 41.4244 326.385 41.3986 326.282 41.347C326.179 41.2696 326.102 41.1664 326.05 41.0374C325.998 40.9084 325.96 40.7536 325.934 40.573C325.908 40.3666 325.895 40.1473 325.895 39.9151C325.895 39.6055 325.921 39.3475 325.973 39.1411C325.998 38.9347 326.076 38.767 326.205 38.638C326.308 38.509 326.463 38.4445 326.669 38.4445V41.4244ZM347.374 41.4244C346.471 41.4244 345.581 41.2567 344.703 40.9213C343.826 40.5601 343 40.0183 342.227 39.2959L344.355 37.0513C344.948 37.5415 345.477 37.9027 345.942 38.1349C346.406 38.3413 346.883 38.4445 347.374 38.4445H354.301L352.908 39.8377V30.6658C352.908 30.2272 352.856 29.5822 352.753 28.7308C352.676 27.8794 352.547 26.9248 352.366 25.867C352.211 24.7834 352.018 23.6998 351.785 22.6162L355.036 22.0744C355.217 22.9774 355.397 23.9836 355.578 25.093C355.759 26.2024 355.913 27.2602 356.042 28.2664C356.171 29.2726 356.236 30.0724 356.236 30.6658V41.4244H347.374ZM326.669 41.4244V38.4445H332.319L331.507 39.2572V25.9444H334.757V41.4244H326.669ZM334.757 41.4244V38.4445H338.976C339.853 38.4445 340.511 38.3155 340.949 38.0575C341.414 37.7995 341.736 37.2835 341.917 36.5095C342.098 35.7355 342.188 34.6003 342.188 33.1039V24.0094H345.477V33.1039C345.477 35.1421 345.258 36.7804 344.819 38.0188C344.381 39.2314 343.684 40.1086 342.73 40.6504C341.775 41.1664 340.524 41.4244 338.976 41.4244H334.757ZM360.415 41.4244V38.4445C360.57 38.4445 360.699 38.4832 360.802 38.5606C360.906 38.6122 360.983 38.7025 361.035 38.8315C361.086 38.9605 361.125 39.1153 361.151 39.2959C361.177 39.4765 361.19 39.6829 361.19 39.9151C361.19 40.1473 361.177 40.3666 361.151 40.573C361.125 40.7536 361.086 40.9084 361.035 41.0374C360.983 41.1664 360.906 41.2696 360.802 41.347C360.699 41.3986 360.57 41.4244 360.415 41.4244Z"
      fill="#6C6C70"
    />
    <path
      d="M382.477 41.4244V38.4445H386.657V41.4244H382.477ZM360.418 41.4244C360.263 41.4244 360.134 41.3986 360.031 41.347C359.928 41.2696 359.851 41.1664 359.799 41.0374C359.747 40.9084 359.709 40.7536 359.683 40.573C359.657 40.3666 359.644 40.1473 359.644 39.9151C359.644 39.6055 359.67 39.3475 359.722 39.1411C359.747 38.9347 359.825 38.767 359.954 38.638C360.057 38.509 360.212 38.4445 360.418 38.4445V41.4244ZM360.418 41.4244V38.4445H381.432L379.188 40.0699V31.9429C379.188 30.1885 378.981 28.8082 378.569 27.802C378.182 26.7958 377.498 26.0863 376.517 25.6735C375.563 25.2607 374.26 25.0543 372.609 25.0543C371.525 25.0543 370.454 25.1317 369.397 25.2865C368.339 25.4155 367.513 25.609 366.92 25.867L368.932 23.8546C368.777 24.4738 368.623 25.2607 368.468 26.2153C368.313 27.1441 368.184 28.1503 368.081 29.2339C367.978 30.2917 367.926 31.3495 367.926 32.4073C367.926 33.4909 367.978 34.5616 368.081 35.6194C368.184 36.6772 368.3 37.5931 368.429 38.3671C368.558 39.1153 368.661 39.6442 368.739 39.9538L365.604 40.8439C365.501 40.5085 365.372 39.928 365.217 39.1024C365.062 38.2768 364.92 37.2835 364.791 36.1225C364.688 34.9615 364.637 33.7231 364.637 32.4073C364.637 31.1431 364.701 29.9176 364.83 28.7308C364.959 27.5182 365.101 26.4217 365.256 25.4413C365.436 24.4609 365.604 23.674 365.759 23.0806C366.326 22.8484 367.229 22.6162 368.468 22.384C369.732 22.1518 371.112 22.0357 372.609 22.0357C374.802 22.0357 376.634 22.3582 378.104 23.0032C379.575 23.6482 380.671 24.6931 381.394 26.1379C382.116 27.5827 382.477 29.5177 382.477 31.9429V41.4244H360.418ZM386.657 41.4244V38.4445C386.812 38.4445 386.941 38.4832 387.044 38.5606C387.147 38.6122 387.224 38.7025 387.276 38.8315C387.328 38.9605 387.366 39.1153 387.392 39.2959C387.418 39.4765 387.431 39.6829 387.431 39.9151C387.431 40.1473 387.418 40.3666 387.392 40.573C387.366 40.7536 387.328 40.9084 387.276 41.0374C387.224 41.1664 387.147 41.2696 387.044 41.347C386.941 41.3986 386.812 41.4244 386.657 41.4244Z"
      fill="#6C6C70"
    />
    <path
      d="M391.291 41.4244V13.7152H394.619V41.4244H391.291ZM386.647 41.4244V38.4445H391.291V41.4244H386.647ZM386.647 41.4244C386.492 41.4244 386.363 41.3986 386.26 41.347C386.156 41.2696 386.079 41.1664 386.027 41.0374C385.976 40.9084 385.937 40.7536 385.911 40.573C385.885 40.3666 385.873 40.1473 385.873 39.9151C385.873 39.6055 385.898 39.3475 385.95 39.1411C385.976 38.9347 386.053 38.767 386.182 38.638C386.285 38.509 386.44 38.4445 386.647 38.4445V41.4244Z"
      fill="#6C6C70"
    />
    <path d="M401.207 41.4244V13.7152H404.497V41.4244H401.207Z" fill="#6C6C70" />
    <path
      d="M426.986 41.4244C424.767 41.4244 423.013 41.089 421.723 40.4182C420.459 39.7216 419.556 38.6638 419.014 37.2448C418.498 35.8 418.24 33.9682 418.24 31.7494C418.24 29.5564 418.498 27.7375 419.014 26.2927C419.556 24.8479 420.459 23.7901 421.723 23.1193C423.013 22.4227 424.767 22.0744 426.986 22.0744H435.113V39.7603H431.785V23.7772L433.294 25.0543H426.986C425.567 25.0543 424.458 25.2349 423.658 25.5961C422.884 25.9315 422.342 26.5765 422.033 27.5311C421.723 28.4857 421.568 29.8918 421.568 31.7494C421.568 33.607 421.71 35.0131 421.994 35.9677C422.303 36.9223 422.858 37.5802 423.658 37.9414C424.458 38.2768 425.567 38.4445 426.986 38.4445H439.293V41.4244H426.986ZM439.293 41.4244V38.4445C439.448 38.4445 439.577 38.4832 439.68 38.5606C439.783 38.6122 439.86 38.7025 439.912 38.8315C439.964 38.9605 440.002 39.1153 440.028 39.2959C440.054 39.4765 440.067 39.6829 440.067 39.9151C440.067 40.1473 440.054 40.3666 440.028 40.573C440.002 40.7536 439.964 40.9084 439.912 41.0374C439.86 41.1664 439.783 41.2696 439.68 41.347C439.577 41.3986 439.448 41.4244 439.293 41.4244ZM423 18.5914V14.9923H426.29V18.5914H423ZM428.534 18.5914V14.9923H431.824V18.5914H428.534Z"
      fill="#6C6C70"
    />
    <path
      d="M447.071 41.4244V38.4445H451.328V41.4244H447.071ZM451.328 41.4244V38.4445C451.483 38.4445 451.612 38.4832 451.715 38.5606C451.818 38.6122 451.895 38.7025 451.947 38.8315C451.999 38.9605 452.037 39.1153 452.063 39.2959C452.089 39.4765 452.102 39.6829 452.102 39.9151C452.102 40.1473 452.089 40.3666 452.063 40.573C452.037 40.7536 451.999 40.9084 451.947 41.0374C451.895 41.1664 451.818 41.2696 451.715 41.347C451.612 41.3986 451.483 41.4244 451.328 41.4244ZM439.293 41.4244C439.138 41.4244 439.008 41.3986 438.905 41.347C438.802 41.2696 438.725 41.1664 438.673 41.0374C438.621 40.9084 438.583 40.7536 438.557 40.573C438.531 40.3666 438.518 40.1473 438.518 39.9151C438.518 39.6055 438.544 39.3475 438.596 39.1411C438.621 38.9347 438.699 38.767 438.828 38.638C438.931 38.509 439.086 38.4445 439.293 38.4445V41.4244ZM439.293 41.4244V38.4445H445.368L443.743 39.7603V22.0744H447.071V41.4244H439.293ZM440.84 48.5839V44.9848H444.13V48.5839H440.84ZM446.374 48.5839V44.9848H449.664V48.5839H446.374Z"
      fill="#6C6C70"
    />
    <path
      d="M458.779 41.4244V38.4445H462.959V41.4244H458.779ZM451.31 41.4244C451.156 41.4244 451.027 41.3986 450.923 41.347C450.82 41.2696 450.743 41.1664 450.691 41.0374C450.639 40.9084 450.601 40.7536 450.575 40.573C450.549 40.3666 450.536 40.1473 450.536 39.9151C450.536 39.6055 450.562 39.3475 450.614 39.1411C450.639 38.9347 450.717 38.767 450.846 38.638C450.949 38.509 451.104 38.4445 451.31 38.4445V41.4244ZM451.31 41.4244V38.4445H457.077L455.49 39.7603V22.0744H458.779V41.4244H451.31ZM462.959 41.4244V38.4445C463.114 38.4445 463.243 38.4832 463.346 38.5606C463.449 38.6122 463.527 38.7025 463.578 38.8315C463.63 38.9605 463.669 39.1153 463.694 39.2959C463.72 39.4765 463.733 39.6829 463.733 39.9151C463.733 40.1473 463.72 40.3666 463.694 40.573C463.669 40.7536 463.63 40.9084 463.578 41.0374C463.527 41.1664 463.449 41.2696 463.346 41.347C463.243 41.3986 463.114 41.4244 462.959 41.4244ZM455.49 18.5914V14.9923H458.818V18.5914H455.49Z"
      fill="#6C6C70"
    />
    <path
      d="M462.951 41.4244V38.4445H488.802L485.784 41.1148V32.1751C485.784 30.5755 485.564 29.2597 485.126 28.2277C484.687 27.1699 484.029 26.383 483.152 25.867C482.301 25.3252 481.217 25.0543 479.901 25.0543C478.766 25.0543 477.708 25.2478 476.728 25.6348C475.773 26.0218 474.883 26.5249 474.057 27.1441C473.232 27.7633 472.458 28.447 471.735 29.1952C471.039 29.9176 470.394 30.6529 469.8 31.4011C469.207 32.1493 468.665 32.833 468.175 33.4522L467.169 30.5497C467.994 29.4919 468.82 28.4599 469.646 27.4537C470.497 26.4475 471.413 25.5445 472.393 24.7447C473.374 23.9449 474.483 23.2999 475.722 22.8097C476.96 22.3195 478.379 22.0744 479.979 22.0744C481.81 22.0744 483.307 22.384 484.468 23.0032C485.655 23.5966 486.583 24.4093 487.254 25.4413C487.925 26.4475 488.389 27.544 488.647 28.7308C488.931 29.8918 489.073 31.0399 489.073 32.1751V41.4244H462.951ZM465.505 38.4445V13.7152H468.833V38.4445H465.505ZM462.951 41.4244C462.796 41.4244 462.667 41.3986 462.564 41.347C462.46 41.2696 462.383 41.1664 462.331 41.0374C462.28 40.9084 462.241 40.7536 462.215 40.573C462.189 40.3666 462.177 40.1473 462.177 39.9151C462.177 39.6055 462.202 39.3475 462.254 39.1411C462.28 38.9347 462.357 38.767 462.486 38.638C462.589 38.509 462.744 38.4445 462.951 38.4445V41.4244Z"
      fill="#6C6C70"
    />
    <path
      d="M510.359 41.4244V38.4445H514.539V41.4244H510.359ZM501.032 50.1319C500.103 50.1319 499.123 50.0545 498.091 49.8997C497.085 49.7707 495.975 49.5772 494.763 49.3192L495.266 46.6489C496.633 46.8295 497.769 46.9585 498.672 47.0359C499.6 47.1133 500.387 47.152 501.032 47.152C503.122 47.152 504.644 46.7521 505.599 45.9523C506.553 45.1525 507.031 43.9915 507.031 42.4693V24.0481L508.54 25.0543H502.232C500.813 25.0543 499.704 25.2349 498.904 25.5961C498.13 25.9315 497.588 26.5765 497.278 27.5311C496.969 28.4857 496.814 29.8918 496.814 31.7494C496.814 33.607 496.956 35.0131 497.24 35.9677C497.549 36.9223 498.104 37.5802 498.904 37.9414C499.704 38.2768 500.813 38.4445 502.232 38.4445H507.031V41.4244H502.232C500.013 41.4244 498.259 41.089 496.969 40.4182C495.705 39.7216 494.802 38.6638 494.26 37.2448C493.744 35.8 493.486 33.9682 493.486 31.7494C493.486 29.5564 493.744 27.7375 494.26 26.2927C494.802 24.8479 495.705 23.7901 496.969 23.1193C498.259 22.4227 500.013 22.0744 502.232 22.0744H510.359V42.4306C510.359 44.056 509.985 45.4492 509.237 46.6102C508.488 47.7712 507.418 48.6484 506.025 49.2418C504.631 49.8352 502.967 50.1319 501.032 50.1319ZM514.539 41.4244V38.4445C514.693 38.4445 514.822 38.4832 514.926 38.5606C515.029 38.6122 515.106 38.7025 515.158 38.8315C515.209 38.9605 515.248 39.1153 515.274 39.2959C515.3 39.4765 515.313 39.6829 515.313 39.9151C515.313 40.1473 515.3 40.3666 515.274 40.573C515.248 40.7536 515.209 40.9084 515.158 41.0374C515.106 41.1664 515.029 41.2696 514.926 41.347C514.822 41.3986 514.693 41.4244 514.539 41.4244Z"
      fill="#6C6C70"
    />
    <path
      d="M519.182 41.4244V13.7152H522.51V41.4244H519.182ZM514.539 41.4244V38.4445H519.182V41.4244H514.539ZM514.539 41.4244C514.384 41.4244 514.254 41.3986 514.151 41.347C514.048 41.2696 513.97 41.1664 513.919 41.0374C513.867 40.9084 513.828 40.7536 513.803 40.573C513.777 40.3666 513.764 40.1473 513.764 39.9151C513.764 39.6055 513.79 39.3475 513.841 39.1411C513.867 38.9347 513.945 38.767 514.074 38.638C514.177 38.509 514.332 38.4445 514.539 38.4445V41.4244Z"
      fill="#6C6C70"
    />
    <path d="M529.099 41.4244V13.7152H532.388V41.4244H529.099Z" fill="#6C6C70" />
    <path
      d="M554.878 41.4244C552.659 41.4244 550.904 41.089 549.614 40.4182C548.35 39.7216 547.447 38.6638 546.905 37.2448C546.389 35.8 546.131 33.9682 546.131 31.7494C546.131 29.5564 546.389 27.7375 546.905 26.2927C547.447 24.8479 548.35 23.7901 549.614 23.1193C550.904 22.4227 552.659 22.0744 554.878 22.0744H563.005V39.7603H559.676V23.7772L561.186 25.0543H554.878C553.459 25.0543 552.349 25.2349 551.549 25.5961C550.775 25.9315 550.234 26.5765 549.924 27.5311C549.614 28.4857 549.46 29.8918 549.46 31.7494C549.46 33.607 549.601 35.0131 549.885 35.9677C550.195 36.9223 550.75 37.5802 551.549 37.9414C552.349 38.2768 553.459 38.4445 554.878 38.4445H567.184V41.4244H554.878ZM567.184 41.4244V38.4445C567.339 38.4445 567.468 38.4832 567.571 38.5606C567.674 38.6122 567.752 38.7025 567.803 38.8315C567.855 38.9605 567.894 39.1153 567.919 39.2959C567.945 39.4765 567.958 39.6829 567.958 39.9151C567.958 40.1473 567.945 40.3666 567.919 40.573C567.894 40.7536 567.855 40.9084 567.803 41.0374C567.752 41.1664 567.674 41.2696 567.571 41.347C567.468 41.3986 567.339 41.4244 567.184 41.4244ZM550.891 18.5914V14.9923H554.181V18.5914H550.891ZM556.426 18.5914V14.9923H559.715V18.5914H556.426Z"
      fill="#6C6C70"
    />
    <path
      d="M567.184 41.4244V38.4445H586.534L585.373 39.4507V32.7943C585.373 31.4011 585.192 30.2659 584.831 29.3887C584.47 28.4857 583.928 27.8149 583.205 27.3763C582.509 26.9377 581.619 26.7184 580.535 26.7184H572.098L569.738 23.1967L571.441 19.9072C571.75 19.3654 572.06 18.8107 572.369 18.2431C572.705 17.6497 573.118 16.966 573.608 16.192C574.098 15.418 574.717 14.4763 575.465 13.3669L578.213 15.031C577.491 16.1404 576.897 17.0692 576.433 17.8174C575.968 18.5398 575.581 19.1719 575.272 19.7137C574.962 20.2297 574.666 20.7586 574.382 21.3004L572.485 24.8995L571.711 23.6998H580.535C582.161 23.6998 583.502 23.9836 584.56 24.5512C585.618 25.093 586.443 25.8283 587.037 26.7571C587.656 27.6601 588.082 28.6405 588.314 29.6983C588.572 30.7561 588.701 31.7881 588.701 32.7943V41.4244H567.184ZM567.184 41.4244C567.029 41.4244 566.9 41.3986 566.797 41.347C566.693 41.2696 566.616 41.1664 566.564 41.0374C566.513 40.9084 566.474 40.7536 566.448 40.573C566.422 40.3666 566.41 40.1473 566.41 39.9151C566.41 39.6055 566.435 39.3475 566.487 39.1411C566.513 38.9347 566.59 38.767 566.719 38.638C566.822 38.509 566.978 38.4445 567.184 38.4445V41.4244Z"
      fill="#6C6C70"
    />
    <path
      d="M632.272 41.4244V38.4445H636.452V41.4244H632.272ZM636.452 41.4244V38.4445C636.607 38.4445 636.736 38.4832 636.839 38.5606C636.942 38.6122 637.02 38.7025 637.071 38.8315C637.123 38.9605 637.161 39.1153 637.187 39.2959C637.213 39.4765 637.226 39.6829 637.226 39.9151C637.226 40.1473 637.213 40.3666 637.187 40.573C637.161 40.7536 637.123 40.9084 637.071 41.0374C637.02 41.1664 636.942 41.2696 636.839 41.347C636.736 41.3986 636.607 41.4244 636.452 41.4244ZM592.063 50.1319C591.728 50.1319 591.379 50.1061 591.018 50.0545C590.631 50.0287 590.257 50.0029 589.896 49.9771L590.206 46.9972C590.567 47.023 590.915 47.0488 591.25 47.0746C591.56 47.1262 591.831 47.152 592.063 47.152C593.25 47.152 594.205 46.7005 594.927 45.7975C595.649 44.8945 596.011 43.6432 596.011 42.0436V22.0744H599.339V42.0436C599.339 43.6432 599.029 45.0493 598.41 46.2619C597.791 47.5003 596.926 48.4549 595.817 49.1257C594.733 49.7965 593.482 50.1319 592.063 50.1319ZM623.565 41.4244C622.662 41.4244 621.772 41.2567 620.895 40.9213C620.043 40.5601 619.205 40.0183 618.379 39.2959L620.546 37.0513C621.114 37.5415 621.63 37.9027 622.094 38.1349C622.585 38.3413 623.075 38.4445 623.565 38.4445H630.492L629.138 39.8377V30.6658C629.138 30.2272 629.086 29.5822 628.983 28.7308C628.906 27.8794 628.777 26.9248 628.596 25.867C628.441 24.7834 628.248 23.6998 628.015 22.6162L631.228 22.0744C631.408 22.9774 631.589 23.9836 631.769 25.093C631.95 26.2024 632.092 27.2602 632.195 28.2664C632.324 29.2726 632.389 30.0724 632.389 30.6658V41.4244H623.565ZM599.339 28.8856V25.867H607.659V28.8856H599.339ZM607.659 41.4244V22.0744H610.987V41.4244H607.659ZM610.987 41.4244V38.4445H615.128C616.006 38.4445 616.676 38.3155 617.141 38.0575C617.605 37.7995 617.928 37.2835 618.108 36.5095C618.289 35.7355 618.379 34.6003 618.379 33.1039V24.0094H621.707V33.1039C621.707 35.1421 621.475 36.7804 621.011 38.0188C620.572 39.2314 619.876 40.1086 618.921 40.6504C617.966 41.1664 616.702 41.4244 615.128 41.4244H610.987ZM618.495 13.3669V10H621.514V13.3669H618.495ZM615.593 18.5914V14.9923H618.882V18.5914H615.593ZM621.127 18.5914V14.9923H624.416V18.5914H621.127Z"
      fill="#6C6C70"
    />
    <path
      d="M641.102 41.4244V13.7152H644.43V41.4244H641.102ZM636.458 41.4244V38.4445H641.102V41.4244H636.458ZM636.458 41.4244C636.303 41.4244 636.174 41.3986 636.071 41.347C635.968 41.2696 635.89 41.1664 635.839 41.0374C635.787 40.9084 635.749 40.7536 635.723 40.573C635.697 40.3666 635.684 40.1473 635.684 39.9151C635.684 39.6055 635.71 39.3475 635.761 39.1411C635.787 38.9347 635.865 38.767 635.994 38.638C636.097 38.509 636.252 38.4445 636.458 38.4445V41.4244Z"
      fill="#6C6C70"
    />
    <path d="M651.019 41.4244V13.7152H654.308V41.4244H651.019Z" fill="#6C6C70" />
    <defs>
      <linearGradient
        id="paint0_linear_1_733"
        x1="1"
        y1="113.924"
        x2="658"
        y2="113.924"
        gradientUnits="userSpaceOnUse"
      >
        <stop stop-color="#2085C6" />
        <stop offset="1" stop-color="#61C4B5" />
      </linearGradient>
    </defs>
  </svg>