<svg width="18" height="20" viewBox="0 0 18 20" fill="none" xmlns="http://www.w3.org/2000/svg">
<path fill-rule="evenodd" clip-rule="evenodd" d="M4.1808 8.88871e-07H11.8192C12.3552 -1.75886e-05 12.8176 -3.35611e-05 13.1983 0.031579C13.6002 0.0649539 13.9997 0.138671 14.3829 0.337762C14.9309 0.622388 15.3776 1.06915 15.6622 1.61708C15.8613 2.00035 15.9351 2.39982 15.9684 2.8017C16 3.18236 16 3.64477 16 4.18078V10.5C16 11.0523 15.5523 11.5 15 11.5C14.4477 11.5 14 11.0523 14 10.5V4.22C14 3.63373 13.9992 3.25517 13.9753 2.96722C13.9524 2.69125 13.9135 2.58924 13.8874 2.53903C13.7925 2.35638 13.6436 2.20746 13.461 2.11259C13.4108 2.08651 13.3088 2.04764 13.0328 2.02472C12.7448 2.00081 12.3663 2 11.78 2H4.22C3.63373 2 3.25517 2.00081 2.96722 2.02472C2.69125 2.04764 2.58924 2.08651 2.53903 2.11259C2.35638 2.20746 2.20746 2.35638 2.11259 2.53903C2.08651 2.58924 2.04764 2.69125 2.02472 2.96722C2.00081 3.25517 2 3.63373 2 4.22V15.78C2 16.3663 2.00081 16.7448 2.02472 17.0328C2.04764 17.3088 2.08651 17.4108 2.11259 17.461C2.20746 17.6436 2.35638 17.7925 2.53903 17.8874C2.58924 17.9135 2.69125 17.9524 2.96722 17.9753C3.25517 17.9992 3.63373 18 4.22 18H7C7.55229 18 8 18.4477 8 19C8 19.5523 7.55229 20 7 20H4.18083C3.64479 20 3.18238 20 2.8017 19.9684C2.39982 19.935 2.00034 19.8613 1.61708 19.6622C1.06915 19.3776 0.622389 18.9309 0.337762 18.3829C0.138671 17.9997 0.0649539 17.6002 0.031579 17.1983C-3.35611e-05 16.8176 -1.75886e-05 16.3552 8.88871e-07 15.8192V4.1808C-1.75886e-05 3.64478 -3.35611e-05 3.18237 0.031579 2.8017C0.0649539 2.39982 0.13867 2.00035 0.337762 1.61708C0.622388 1.06915 1.06915 0.622388 1.61708 0.337762C2.00035 0.138671 2.39982 0.0649539 2.8017 0.031579C3.18237 -3.35611e-05 3.64478 -1.75886e-05 4.1808 8.88871e-07ZM4 5C4 4.44772 4.44772 4 5 4H11C11.5523 4 12 4.44772 12 5C12 5.55229 11.5523 6 11 6H5C4.44772 6 4 5.55229 4 5ZM4 9C4 8.44772 4.44772 8 5 8H11C11.5523 8 12 8.44772 12 9C12 9.55229 11.5523 10 11 10H5C4.44772 10 4 9.55229 4 9ZM4 13C4 12.4477 4.44772 12 5 12H7C7.55229 12 8 12.4477 8 13C8 13.5523 7.55229 14 7 14H5C4.44772 14 4 13.5523 4 13ZM17.7071 14.2929C18.0976 14.6834 18.0976 15.3166 17.7071 15.7071L14.0607 19.3536C13.4749 19.9393 12.5251 19.9393 11.9393 19.3536L10.2929 17.7071C9.90237 17.3166 9.90237 16.6834 10.2929 16.2929C10.6834 15.9024 11.3166 15.9024 11.7071 16.2929L13 17.5858L16.2929 14.2929C16.6834 13.9024 17.3166 13.9024 17.7071 14.2929Z" fill="white"/>
</svg>
