<svg width="19" height="20" viewBox="0 0 19 20" fill="none" xmlns="http://www.w3.org/2000/svg">
<path fill-rule="evenodd" clip-rule="evenodd" d="M4.1808 8.88871e-07H11.8192C12.3552 -1.75886e-05 12.8176 -3.35611e-05 13.1983 0.031579C13.6002 0.0649539 13.9997 0.138671 14.3829 0.337762C14.9309 0.622388 15.3776 1.06915 15.6622 1.61708C15.8613 2.00035 15.9351 2.39982 15.9684 2.8017C16 3.18236 16 3.64477 16 4.18078V7C16 7.55229 15.5523 8 15 8C14.4477 8 14 7.55229 14 7V4.22C14 3.63373 13.9992 3.25517 13.9753 2.96722C13.9524 2.69125 13.9135 2.58924 13.8874 2.53903C13.7925 2.35638 13.6436 2.20746 13.461 2.11259C13.4108 2.08651 13.3088 2.04764 13.0328 2.02472C12.7448 2.00081 12.3663 2 11.78 2H4.22C3.63373 2 3.25517 2.00081 2.96722 2.02472C2.69125 2.04764 2.58924 2.08651 2.53903 2.11259C2.35638 2.20746 2.20746 2.35638 2.11259 2.53903C2.08651 2.58924 2.04764 2.69125 2.02472 2.96722C2.00081 3.25517 2 3.63373 2 4.22V15.78C2 16.3663 2.00081 16.7448 2.02472 17.0328C2.04764 17.3088 2.08651 17.4108 2.11259 17.461C2.20746 17.6436 2.35638 17.7925 2.53903 17.8874C2.58924 17.9135 2.69125 17.9524 2.96722 17.9753C3.25517 17.9992 3.63373 18 4.22 18H6C6.55229 18 7 18.4477 7 19C7 19.5523 6.55229 20 6 20H4.18083C3.64479 20 3.18238 20 2.8017 19.9684C2.39982 19.935 2.00034 19.8613 1.61708 19.6622C1.06915 19.3776 0.622389 18.9309 0.337762 18.3829C0.138671 17.9997 0.0649539 17.6002 0.031579 17.1983C-3.35611e-05 16.8176 -1.75886e-05 16.3552 8.88871e-07 15.8192V4.1808C-1.75886e-05 3.64478 -3.35611e-05 3.18237 0.031579 2.8017C0.0649539 2.39982 0.13867 2.00035 0.337762 1.61708C0.622388 1.06915 1.06915 0.622388 1.61708 0.337762C2.00035 0.138671 2.39982 0.0649539 2.8017 0.031579C3.18237 -3.35611e-05 3.64478 -1.75886e-05 4.1808 8.88871e-07ZM4 5C4 4.44772 4.44772 4 5 4H11C11.5523 4 12 4.44772 12 5C12 5.55229 11.5523 6 11 6H5C4.44772 6 4 5.55229 4 5ZM4 9C4 8.44772 4.44772 8 5 8H11C11.5523 8 12 8.44772 12 9C12 9.55229 11.5523 10 11 10H5C4.44772 10 4 9.55229 4 9ZM14 12C13.4477 12 13 12.4477 13 13C13 13.5523 13.4477 14 14 14C14.5523 14 15 13.5523 15 13C15 12.4477 14.5523 12 14 12ZM16.4951 14.6662C16.814 14.1896 17 13.6165 17 13C17 11.3431 15.6569 10 14 10C12.3431 10 11 11.3431 11 13C11 13.6165 11.186 14.1896 11.5049 14.6662C10.0088 15.5291 9 17.1437 9 18.9949C9 19.55 9.45002 20 10.0051 20H17.9949C18.55 20 19 19.55 19 18.9949C19 17.1437 17.9912 15.5291 16.4951 14.6662ZM14 16C12.6937 16 11.5812 16.8357 11.1699 18H16.8302C16.4188 16.8357 15.3063 16 14 16ZM4 13C4 12.4477 4.44772 12 5 12H7C7.55229 12 8 12.4477 8 13C8 13.5523 7.55229 14 7 14H5C4.44772 14 4 13.5523 4 13Z" fill="white"/>
</svg>
