<svg width="20" height="21" viewBox="0 0 20 21" xmlns="http://www.w3.org/2000/svg">
<g id="calendar">
<path id="Icon (Stroke)" fill-rule="evenodd" clip-rule="evenodd" d="M8.29174 3.83341C8.09871 2.88248 7.25798 2.16675 6.25008 2.16675C5.23769 2.16675 4.39396 2.88887 4.20588 3.84614C4.13586 3.84945 4.06862 3.85363 4.00423 3.85889C3.67477 3.88581 3.34709 3.94524 3.03177 4.1059C2.56137 4.34558 2.17892 4.72803 1.93923 5.19844C1.77857 5.51376 1.71914 5.84144 1.69222 6.17089C1.66672 6.48304 1.66673 6.862 1.66675 7.30129V15.3655C1.66673 15.8048 1.66672 16.1838 1.69222 16.4959C1.71914 16.8254 1.77857 17.1531 1.93923 17.4684C2.17892 17.9388 2.56137 18.3212 3.03177 18.5609C3.34709 18.7216 3.67477 18.781 4.00423 18.8079C4.31637 18.8334 4.69533 18.8334 5.13461 18.8334H14.8656C15.3048 18.8334 15.6838 18.8334 15.9959 18.8079C16.3254 18.781 16.6531 18.7216 16.9684 18.5609C17.4388 18.3212 17.8212 17.9388 18.0609 17.4684C18.2216 17.1531 18.281 16.8254 18.3079 16.4959C18.3334 16.1838 18.3334 15.8048 18.3334 15.3656V7.30128C18.3334 6.86199 18.3334 6.48303 18.3079 6.17089C18.281 5.84144 18.2216 5.51376 18.0609 5.19844C17.8212 4.72803 17.4388 4.34558 16.9684 4.1059C16.6531 3.94524 16.3254 3.88581 15.9959 3.85889C15.9315 3.85363 15.8643 3.84945 15.7943 3.84614C15.6062 2.88887 14.7625 2.16675 13.7501 2.16675C12.7422 2.16675 11.9015 2.88248 11.7084 3.83341H8.29174ZM4.13995 5.52002C3.91356 5.53852 3.82963 5.56992 3.78842 5.59091C3.63162 5.6708 3.50414 5.79829 3.42424 5.95509C3.40325 5.99629 3.37185 6.08023 3.35336 6.30661C3.33406 6.54273 3.33342 6.85295 3.33342 7.33342V8.00008H16.6667V7.33342C16.6667 6.85295 16.6661 6.54273 16.6468 6.30661C16.6283 6.08023 16.5969 5.99629 16.5759 5.95509C16.496 5.79829 16.3685 5.6708 16.2117 5.59091C16.1705 5.56992 16.0866 5.53852 15.8602 5.52002C15.6241 5.50073 15.3139 5.50008 14.8334 5.50008H5.16675C4.68629 5.50008 4.37606 5.50073 4.13995 5.52002ZM16.6667 9.66675V15.3334C16.6667 15.8139 16.6661 16.1241 16.6468 16.3602C16.6283 16.5866 16.5969 16.6705 16.5759 16.7117C16.496 16.8685 16.3685 16.996 16.2117 17.0759C16.1705 17.0969 16.0866 17.1283 15.8602 17.1468C15.6241 17.1661 15.3139 17.1667 14.8334 17.1667H5.16675C4.68629 17.1667 4.37606 17.1661 4.13995 17.1468C3.91356 17.1283 3.82963 17.0969 3.78843 17.0759C3.63162 16.996 3.50414 16.8685 3.42424 16.7117C3.40325 16.6705 3.37185 16.5866 3.35336 16.3602C3.33406 16.1241 3.33342 15.8139 3.33342 15.3334V9.66675H16.6667Z"/>
</g>
</svg>
