<svg width="24" height="24" viewBox="0 0 24 24" fill="none" xmlns="http://www.w3.org/2000/svg">
<path fill-rule="evenodd" clip-rule="evenodd" d="M17.6869 8.27325C18.0883 8.65261 18.1061 9.28553 17.7268 9.6869L11.2937 16.4932C10.655 17.1689 9.59496 17.1689 8.95631 16.4932L6.27325 13.6545C5.89389 13.2531 5.91173 12.6202 6.3131 12.2408C6.71448 11.8615 7.34739 11.8793 7.72676 12.2807L10.125 14.8181L16.2732 8.3131C16.6526 7.91173 17.2855 7.89389 17.6869 8.27325Z" fill="#209842"/>
<path fill-rule="evenodd" clip-rule="evenodd" d="M0 12C0 5.37258 5.37258 0 12 0C18.6274 0 24 5.37258 24 12C24 18.6274 18.6274 24 12 24C5.37258 24 0 18.6274 0 12ZM12 2C6.47715 2 2 6.47715 2 12C2 17.5228 6.47715 22 12 22C17.5228 22 22 17.5228 22 12C22 6.47715 17.5228 2 12 2Z" fill="#209842"/>
</svg>
