<svg width="20" height="20" viewBox="0 0 20 20" fill="none" xmlns="http://www.w3.org/2000/svg">
<path fill-rule="evenodd" clip-rule="evenodd" d="M6 2C5.44772 2 5 2.44772 5 3V10H5.5C6.35902 10 6.92161 10.6784 7.02771 11.3393C7.13133 11.9848 7.52436 12.6635 8.10895 13.1865C8.69428 13.7102 9.38302 14 10 14C11.7188 14 12.8041 12.7662 12.9767 11.3756C13.0633 10.6777 13.6453 10 14.5 10H15V3C15 2.44772 14.5523 2 14 2H6ZM17 10V3C17 1.34315 15.6569 0 14 0H6C4.34315 0 3 1.34315 3 3V10C1.34315 10 0 11.3431 0 13V17C0 18.6569 1.34315 20 3 20H17C18.6569 20 20 18.6569 20 17V13C20 11.3431 18.6569 10 17 10ZM14.8998 12C14.4744 14.1051 12.7036 16 10 16C8.78331 16 7.63838 15.4492 6.77538 14.677C5.99659 13.9802 5.37534 13.0399 5.12236 12H3C2.44772 12 2 12.4477 2 13V17C2 17.5523 2.44772 18 3 18H17C17.5523 18 18 17.5523 18 17V13C18 12.4477 17.5523 12 17 12H14.8998ZM7 5C7 4.44772 7.44772 4 8 4H12C12.5523 4 13 4.44772 13 5C13 5.55228 12.5523 6 12 6H8C7.44772 6 7 5.55228 7 5ZM7 9C7 8.44772 7.44772 8 8 8H12C12.5523 8 13 8.44772 13 9C13 9.55229 12.5523 10 12 10H8C7.44772 10 7 9.55229 7 9Z" fill="white"/>
</svg>
