<svg  viewBox="0 0 15 15"  xmlns="http://www.w3.org/2000/svg">
<path fill-rule="evenodd" clip-rule="evenodd" d="M7.5 0C7.91421 0 8.25 0.335786 8.25 0.75L8.25 8.68934L9.96967 6.96967C10.2626 6.67678 10.7374 6.67678 11.0303 6.96967C11.3232 7.26256 11.3232 7.73744 11.0303 8.03033L8.56066 10.5C7.97487 11.0858 7.02513 11.0858 6.43934 10.5L3.96967 8.03033C3.67678 7.73744 3.67678 7.26256 3.96967 6.96967C4.26256 6.67678 4.73744 6.67678 5.03033 6.96967L6.75 8.68934L6.75 0.75C6.75 0.335787 7.08579 4.47035e-08 7.5 0ZM0.750001 9.75C1.16421 9.75 1.5 10.0858 1.5 10.5V10.65C1.5 11.2924 1.50058 11.7292 1.52816 12.0667C1.55503 12.3955 1.60372 12.5637 1.66349 12.681C1.8073 12.9632 2.03677 13.1927 2.31901 13.3365C2.43631 13.3963 2.60447 13.445 2.93328 13.4718C3.27085 13.4994 3.70757 13.5 4.35 13.5H10.65C11.2924 13.5 11.7292 13.4994 12.0667 13.4718C12.3955 13.445 12.5637 13.3963 12.681 13.3365C12.9632 13.1927 13.1927 12.9632 13.3365 12.681C13.3963 12.5637 13.445 12.3955 13.4718 12.0667C13.4994 11.7292 13.5 11.2924 13.5 10.65V10.5C13.5 10.0858 13.8358 9.75 14.25 9.75C14.6642 9.75 15 10.0858 15 10.5V10.681C15 11.2847 15 11.783 14.9669 12.1889C14.9324 12.6104 14.8585 12.998 14.673 13.362C14.3854 13.9265 13.9265 14.3854 13.362 14.673C12.998 14.8585 12.6104 14.9324 12.1889 14.9669C11.783 15 11.2847 15 10.681 15H4.31901C3.71529 15 3.21702 15 2.81113 14.9669C2.38956 14.9324 2.00203 14.8585 1.63803 14.673C1.07354 14.3854 0.614602 13.9265 0.326981 13.362C0.141513 12.998 0.0675898 12.6104 0.0331459 12.1889C-1.71103e-05 11.783 -9.24308e-06 11.2847 3.23469e-07 10.681L6.81097e-07 10.5C6.81097e-07 10.0858 0.335787 9.75 0.750001 9.75Z"/>
</svg>
