
  <svg
    width="110"
    height="111"
    viewBox="0 0 110 111"
    fill="none"
    xmlns="http://www.w3.org/2000/svg"
  >
    <circle cx="51" cy="51" r="51" fill="#FCFCFC" />
    <g clip-path="url(#clip0_2055_927)">
      <path
        d="M97.4569 34.0768L53.0989 32.1786C51.6823 32.118 50.4845 33.1776 50.4236 34.5452L47.6304 97.247C47.5695 98.6147 48.6684 99.7725 50.085 99.8331L94.4431 101.731C95.8597 101.792 97.0574 100.732 97.1183 99.3647L99.9116 36.6629C99.9725 35.2952 98.8735 34.1374 97.4569 34.0768Z"
        stroke="#C6CCCE"
        stroke-width="1.99998"
      />
      <path
        d="M69.4603 22.5848L25.443 28.2644C23.6347 28.4978 22.3586 30.1008 22.5929 31.845L30.9518 94.0723C31.186 95.8165 32.8419 97.0413 34.6503 96.808L78.6676 91.1284C80.476 90.895 81.752 89.2919 81.5177 87.5478L73.1589 25.3204C72.9246 23.5763 71.2687 22.3515 69.4603 22.5848Z"
        fill="#FAFAFA"
        stroke="#C6CCCE"
        stroke-width="2"
      />
      <path
        d="M22.9565 31.7981C22.7483 30.2477 23.8825 28.8227 25.4899 28.6154L69.5075 22.9357C71.1149 22.7283 72.5868 23.817 72.7949 25.3674L74.5138 38.1638L24.6754 44.5944L22.9565 31.7981Z"
        fill="#F1F1F1"
      />
      <path
        d="M82.4764 26.7845C83.0593 26.7093 83.4706 26.1925 83.395 25.6304C83.3195 25.0682 82.7858 24.6734 82.2029 24.7486L77.3916 25.3694C76.8088 25.4446 76.3975 25.9613 76.473 26.5235C76.5485 27.0857 77.0822 27.4805 77.6651 27.4053L82.4764 26.7845Z"
        fill="#C6CCCE"
      />
      <path
        d="M66.3403 14.0105C66.266 13.4574 65.7409 13.069 65.1675 13.143C64.594 13.217 64.1894 13.7253 64.2637 14.2784L64.9059 19.0597C64.9802 19.6128 65.5053 20.0011 66.0788 19.9271C66.6522 19.8532 67.0568 19.3448 66.9825 18.7917L66.3403 14.0105Z"
        fill="#C6CCCE"
      />
      <path
        d="M77.2325 15.7692L77.2325 15.7692C76.7736 15.4241 76.1162 15.5089 75.7641 15.9587L72.7888 19.7589C72.4367 20.2086 72.5233 20.853 72.9821 21.1981C73.441 21.5432 74.0985 21.4583 74.4506 21.0086L77.4258 17.2084C77.7779 16.7586 77.6914 16.1143 77.2325 15.7692Z"
        fill="#C6CCCE"
      />
      <path
        d="M69.3058 41.5966L30.6131 46.5892C30.2113 46.641 29.9277 46.9972 29.9798 47.3848L30.1559 48.6957C30.2079 49.0833 30.5759 49.3554 30.9777 49.3036L69.6704 44.3111C70.0722 44.2592 70.3558 43.903 70.3037 43.5154L70.1276 42.2045C70.0756 41.8169 69.7076 41.5448 69.3058 41.5966Z"
        fill="#F6F7F7"
      />
      <path
        d="M71.1295 55.1649L32.4368 60.1574C32.035 60.2093 31.7514 60.5655 31.8035 60.9531L31.9796 62.264C32.0316 62.6515 32.3996 62.9237 32.8015 62.8719L71.4941 57.8793C71.896 57.8275 72.1795 57.4712 72.1275 57.0836L71.9514 55.7728C71.8993 55.3852 71.5313 55.113 71.1295 55.1649Z"
        fill="#F6F7F7"
      />
      <path
        d="M72.9513 68.7332L34.2586 73.7257C33.8568 73.7775 33.5732 74.1338 33.6253 74.5214L33.8014 75.8322C33.8534 76.2198 34.2214 76.492 34.6232 76.4401L73.3159 71.4476C73.7177 71.3957 74.0013 71.0395 73.9492 70.6519L73.7732 69.3411C73.7211 68.9535 73.3531 68.6813 72.9513 68.7332Z"
        fill="#F6F7F7"
      />
      <path
        d="M44.4239 50.3287L31.3429 52.0166C30.941 52.0684 30.6574 52.4246 30.7095 52.8122L30.8856 54.1231C30.9377 54.5107 31.3056 54.7828 31.7075 54.731L44.7885 53.0431C45.1904 52.9913 45.4739 52.635 45.4219 52.2475L45.2458 50.9366C45.1937 50.549 44.8257 50.2768 44.4239 50.3287Z"
        fill="#EEEEEE"
      />
      <path
        d="M46.2457 63.8969L33.1646 65.5848C32.7628 65.6366 32.4792 65.9929 32.5313 66.3805L32.7074 67.6913C32.7594 68.0789 33.1274 68.3511 33.5293 68.2992L46.6103 66.6114C47.0122 66.5595 47.2957 66.2033 47.2436 65.8157L47.0676 64.5048C47.0155 64.1173 46.6475 63.8451 46.2457 63.8969Z"
        fill="#EEEEEE"
      />
      <path
        d="M48.0687 77.4652L34.9876 79.1531C34.5858 79.2049 34.3022 79.5612 34.3543 79.9487L34.5304 81.2596C34.5824 81.6472 34.9504 81.9194 35.3523 81.8675L48.4333 80.1796C48.8351 80.1278 49.1187 79.7716 49.0666 79.384L48.8906 78.0731C48.8385 77.6855 48.4705 77.4134 48.0687 77.4652Z"
        fill="#EEEEEE"
      />
    </g>
    <defs>
      <clipPath id="clip0_2055_927">
        <rect
          width="88.4602"
          height="101.549"
          fill="white"
          transform="translate(21.2124 9.02655)"
        />
      </clipPath>
    </defs>
  </svg>

