<svg viewBox="0 0 19 19" xmlns="http://www.w3.org/2000/svg">
<g id="eye">
<path id="Icon (Stroke)" fill-rule="evenodd" clip-rule="evenodd" d="M9.50056 5C6.77887 5 4.43184 6.61086 3.36383 8.93441C3.19904 9.29293 3.19904 9.70708 3.36383 10.0656C4.43184 12.3891 6.77887 14 9.50056 14C12.2223 14 14.5693 12.3891 15.6373 10.0656C15.8021 9.70708 15.8021 9.29293 15.6373 8.93441C14.5693 6.61086 12.2223 5 9.50056 5ZM2.00091 8.30795C3.30455 5.47178 6.1715 3.5 9.50056 3.5C12.8296 3.5 15.6966 5.47178 17.0002 8.30795C17.3478 9.06411 17.3478 9.9359 17.0002 10.6921C15.6966 13.5282 12.8296 15.5 9.50056 15.5C6.1715 15.5 3.30455 13.5282 2.00091 10.6921C1.65334 9.93589 1.65334 9.06411 2.00091 8.30795ZM9.50056 8C8.67213 8 8.00056 8.67157 8.00056 9.5C8.00056 10.3284 8.67213 11 9.50056 11C10.329 11 11.0006 10.3284 11.0006 9.5C11.0006 8.67157 10.329 8 9.50056 8ZM6.50056 9.5C6.50056 7.84315 7.84371 6.5 9.50056 6.5C11.1574 6.5 12.5006 7.84315 12.5006 9.5C12.5006 11.1569 11.1574 12.5 9.50056 12.5C7.84371 12.5 6.50056 11.1569 6.50056 9.5Z"/>
</g>
</svg>
