<svg  viewBox="0 0 18 20" xmlns="http://www.w3.org/2000/svg">
<path fill-rule="evenodd" clip-rule="evenodd" d="M9.63324 2.22604C9.26487 1.92465 8.73513 1.92465 8.36676 2.22604L3.10029 6.53498C2.40388 7.10476 2 7.95705 2 8.85685V16.4159C2 16.9682 2.44772 17.4159 3 17.4159H5V11.4159C5 10.3113 5.89543 9.41588 7 9.41588H11C12.1046 9.41588 13 10.3113 13 11.4159V17.4159H15C15.5523 17.4159 16 16.9682 16 16.4159V8.85685C16 7.95705 15.5961 7.10476 14.8997 6.53498L9.63324 2.22604ZM15 19.4159C16.6569 19.4159 18 18.0727 18 16.4159V8.85685C18 7.35718 17.3269 5.93671 16.1662 4.98706L10.8997 0.678128C9.79462 -0.226043 8.20538 -0.226042 7.10029 0.678128L1.83381 4.98706C0.673134 5.93671 0 7.35718 0 8.85685V16.4159C0 18.0727 1.34315 19.4159 3 19.4159H15ZM11 17.4159V11.4159H7V17.4159H11Z"/>
</svg>
