<svg viewBox="0 0 20 21" xmlns="http://www.w3.org/2000/svg">
<g id="out">
<path id="Icon (Stroke)" fill-rule="evenodd" clip-rule="evenodd" d="M15.3033 5.19659C12.8486 2.74191 9.11764 2.34531 6.24967 4.00298C5.8512 4.2333 5.71489 4.74302 5.9452 5.14149C6.17551 5.53995 6.68524 5.67627 7.0837 5.44596C9.3148 4.15639 12.2171 4.46737 14.1248 6.3751C16.4028 8.65316 16.4028 12.3466 14.1248 14.6247C12.2171 16.5324 9.3148 16.8434 7.0837 15.5538C6.68524 15.3235 6.17551 15.4598 5.9452 15.8583C5.71489 16.2568 5.8512 16.7665 6.24967 16.9968C9.11764 18.6545 12.8486 18.2579 15.3033 15.8032C18.2322 12.8743 18.2322 8.12553 15.3033 5.19659ZM4.75592 7.41064C4.43048 7.0852 3.90285 7.0852 3.57741 7.41064L2.00138 8.98666C1.85266 9.13535 1.70783 9.28015 1.5952 9.41282C1.47151 9.55852 1.33853 9.74343 1.26008 9.98486C1.15132 10.3196 1.15132 10.6802 1.26008 11.0149C1.33853 11.2564 1.47151 11.4413 1.5952 11.587C1.70784 11.7196 1.85269 11.8645 2.00143 12.0132L3.57741 13.5891C3.90285 13.9146 4.43049 13.9146 4.75592 13.5891C5.08136 13.2637 5.08136 12.7361 4.75592 12.4106L3.67851 11.3332H10C10.4602 11.3332 10.8333 10.9601 10.8333 10.4999C10.8333 10.0397 10.4602 9.66656 10 9.66656H3.67851L4.75592 8.58915C5.08136 8.26371 5.08136 7.73607 4.75592 7.41064Z"/>
</g>
</svg>
