<svg width="18" height="18" viewBox="0 0 18 18" fill="none" xmlns="http://www.w3.org/2000/svg">
<path fill-rule="evenodd" clip-rule="evenodd" d="M2.25 9C2.25 8.58579 2.58579 8.25 3 8.25L9.75 8.25C10.1642 8.25 10.5 8.58579 10.5 9C10.5 9.41421 10.1642 9.75 9.75 9.75L3 9.75C2.58579 9.75 2.25 9.41421 2.25 9Z" fill="#00A98F"/>
<path fill-rule="evenodd" clip-rule="evenodd" d="M6.96967 5.46967C7.26256 5.17678 7.73744 5.17678 8.03033 5.46967L10.5 7.93934C11.0858 8.52513 11.0858 9.47487 10.5 10.0607L8.03033 12.5303C7.73744 12.8232 7.26256 12.8232 6.96967 12.5303C6.67678 12.2374 6.67678 11.7626 6.96967 11.4697L9.43934 9L6.96967 6.53033C6.67678 6.23744 6.67678 5.76256 6.96967 5.46967Z" fill="#00A98F"/>
<path fill-rule="evenodd" clip-rule="evenodd" d="M15 2.25C15.4142 2.25 15.75 2.58579 15.75 3V15C15.75 15.4142 15.4142 15.75 15 15.75C14.5858 15.75 14.25 15.4142 14.25 15V3C14.25 2.58579 14.5858 2.25 15 2.25Z" fill="#00A98F"/>
</svg>

