<svg width="20" height="21" viewBox="0 0 20 21" xmlns="http://www.w3.org/2000/svg">
<g id="ring/notification/1 " clip-path="url(#clip0_1458_67405)">
<path id="Icon (Stroke)" fill-rule="evenodd" clip-rule="evenodd" d="M10.0188 2.60572C7.08217 2.60572 4.72034 4.85359 4.72034 7.8688V11.1943C4.72034 11.8121 4.62407 12.4263 4.43485 13.0135L4.05753 14.1844H15.942L15.5585 12.9943C15.3734 12.42 15.2792 11.8204 15.2792 11.217V7.8688C15.2792 4.95247 12.934 2.60572 10.0188 2.60572ZM2.61511 7.8688C2.61511 3.64951 5.96131 0.500488 10.0188 0.500488C14.0979 0.500488 17.3844 3.79096 17.3844 7.8688V11.217C17.3844 11.6011 17.4444 11.9829 17.5622 12.3486L18.3449 14.777C18.5857 15.5244 18.0283 16.2896 17.2431 16.2896H2.7492C1.91834 16.2896 1.42888 15.4777 1.65377 14.7799L2.43109 12.3678C2.55285 11.99 2.61511 11.5936 2.61511 11.1943V7.8688ZM6.44467 17.6984C6.82935 17.2625 7.49454 17.2211 7.93041 17.6057C8.48771 18.0976 9.21727 18.3949 10.0188 18.3949C10.8204 18.3949 11.5499 18.0976 12.1072 17.6057C12.5431 17.2211 13.2083 17.2625 13.593 17.6984C13.9777 18.1343 13.9362 18.7995 13.5003 19.1842C12.5732 20.0024 11.3528 20.5001 10.0188 20.5001C8.68482 20.5001 7.46449 20.0024 6.53735 19.1842C6.10148 18.7995 6.05999 18.1343 6.44467 17.6984Z" />
</g>
<defs>
<clipPath id="clip0_1458_67405">
<rect width="20" height="20" transform="translate(0 0.5)"/>
</clipPath>
</defs>
</svg>
