<svg viewBox="0 0 24 24" xmlns="http://www.w3.org/2000/svg">
<g id="document/double">
<path id="Icon (Stroke)" fill-rule="evenodd" clip-rule="evenodd" d="M18.0322 4.02393C17.7488 4.00078 17.3766 4 16.8 4H8.00005C7.44777 4 7.00005 3.55229 7.00005 3C7.00005 2.44772 7.44777 2 8.00005 2L16.8385 2C17.3657 1.99998 17.8205 1.99997 18.195 2.03057C18.5904 2.06287 18.9836 2.13419 19.362 2.32698C19.9265 2.6146 20.3854 3.07354 20.673 3.63803C20.8658 4.01641 20.9371 4.40963 20.9694 4.80497C21 5.17954 21 5.6343 21 6.16144V20C21 20.5523 20.5523 21 20 21C19.4477 21 19 20.5523 19 20V6.2C19 5.62345 18.9992 5.25117 18.9761 4.96784C18.9539 4.69617 18.9162 4.59546 18.891 4.54601C18.7951 4.35785 18.6422 4.20487 18.454 4.109C18.4045 4.0838 18.3038 4.04612 18.0322 4.02393ZM7.16146 5H13.8385C14.3657 4.99998 14.8205 4.99997 15.195 5.03057C15.5904 5.06287 15.9836 5.13419 16.362 5.32698C16.9265 5.6146 17.3854 6.07354 17.673 6.63803C17.8658 7.01641 17.9371 7.40963 17.9694 7.80497C18 8.17955 18 8.63432 18 9.16148V18.8385C18 19.3657 18 19.8205 17.9694 20.195C17.9371 20.5904 17.8658 20.9836 17.673 21.362C17.3854 21.9265 16.9265 22.3854 16.362 22.673C15.9836 22.8658 15.5904 22.9371 15.195 22.9694C14.8205 23 14.3657 23 13.8386 23H7.16144C6.6343 23 6.17954 23 5.80497 22.9694C5.40963 22.9371 5.01641 22.8658 4.63803 22.673C4.07354 22.3854 3.6146 21.9265 3.32698 21.362C3.13419 20.9836 3.06287 20.5904 3.03057 20.195C2.99997 19.8205 2.99998 19.3657 3 18.8385V9.16146C2.99998 8.63431 2.99997 8.17955 3.03057 7.80497C3.06287 7.40963 3.13419 7.01641 3.32698 6.63803C3.6146 6.07354 4.07354 5.6146 4.63803 5.32698C5.01641 5.13419 5.40963 5.06287 5.80497 5.03057C6.17955 4.99997 6.63431 4.99998 7.16146 5ZM5.96784 7.02393C5.69617 7.04612 5.59546 7.0838 5.54601 7.109C5.35785 7.20487 5.20487 7.35785 5.109 7.54601C5.0838 7.59546 5.04612 7.69617 5.02393 7.96784C5.00078 8.25117 5 8.62345 5 9.2V18.8C5 19.3766 5.00078 19.7488 5.02393 20.0322C5.04612 20.3038 5.0838 20.4045 5.109 20.454C5.20487 20.6422 5.35785 20.7951 5.54601 20.891C5.59546 20.9162 5.69617 20.9539 5.96784 20.9761C6.25117 20.9992 6.62345 21 7.2 21H13.8C14.3766 21 14.7488 20.9992 15.0322 20.9761C15.3038 20.9539 15.4045 20.9162 15.454 20.891C15.6422 20.7951 15.7951 20.6422 15.891 20.454C15.9162 20.4045 15.9539 20.3038 15.9761 20.0322C15.9992 19.7488 16 19.3766 16 18.8V9.2C16 8.62345 15.9992 8.25117 15.9761 7.96784C15.9539 7.69617 15.9162 7.59546 15.891 7.54601C15.7951 7.35785 15.6422 7.20487 15.454 7.109C15.4045 7.0838 15.3038 7.04612 15.0322 7.02393C14.7488 7.00078 14.3766 7 13.8 7H7.2C6.62345 7 6.25118 7.00078 5.96784 7.02393ZM7 10C7 9.44772 7.44772 9 8 9H13C13.5523 9 14 9.44772 14 10C14 10.5523 13.5523 11 13 11H8C7.44772 11 7 10.5523 7 10ZM7 14C7 13.4477 7.44772 13 8 13H13C13.5523 13 14 13.4477 14 14C14 14.5523 13.5523 15 13 15H8C7.44772 15 7 14.5523 7 14ZM7 18C7 17.4477 7.44772 17 8 17H13C13.5523 17 14 17.4477 14 18C14 18.5523 13.5523 19 13 19H8C7.44772 19 7 18.5523 7 18Z"/>
</g>
</svg>
