<svg width="18" height="18" viewBox="0 0 18 18" fill="none" xmlns="http://www.w3.org/2000/svg">
<g id="trash/alt">
<path id="Icon (Stroke)" fill-rule="evenodd" clip-rule="evenodd" d="M6.37395 6C6.3743 6 6.37465 6 6.375 6C6.37535 6 6.3757 6 6.37605 6H11.624C11.6243 6 11.6247 6 11.625 6C11.6253 6 11.6257 6 11.626 6H12.75V13.35C12.75 13.7824 12.7494 14.0616 12.7321 14.2741C12.7154 14.4779 12.6871 14.5534 12.6683 14.5905C12.5964 14.7316 12.4816 14.8463 12.3405 14.9183C12.3034 14.9371 12.2279 14.9654 12.0241 14.9821C11.8116 14.9994 11.5324 15 11.1 15H6.9C6.46758 15 6.18838 14.9994 5.97588 14.9821C5.77213 14.9654 5.69659 14.9371 5.65951 14.9183C5.51838 14.8463 5.40365 14.7316 5.33175 14.5905C5.31285 14.5534 5.28459 14.4779 5.26795 14.2741C5.25058 14.0616 5.25 13.7824 5.25 13.35V6H6.37395ZM3.75 6C3.33579 6 3 5.66421 3 5.25C3 4.83579 3.33579 4.5 3.75 4.5H5.62866C5.71327 2.77412 7.25101 1.5 9 1.5C10.749 1.5 12.2867 2.77412 12.3713 4.5H14.25C14.6642 4.5 15 4.83579 15 5.25C15 5.66421 14.6642 6 14.25 6V13.3789C14.25 13.7743 14.25 14.1153 14.2271 14.3963C14.2028 14.6928 14.1494 14.9877 14.0048 15.2715C13.789 15.6948 13.4448 16.0391 13.0215 16.2548C12.7377 16.3994 12.4428 16.4528 12.1463 16.4771C11.8653 16.5 11.5243 16.5 11.1289 16.5H6.87107C6.47572 16.5 6.13465 16.5 5.85373 16.4771C5.55722 16.4528 5.26231 16.3994 4.97852 16.2548C4.55516 16.0391 4.21095 15.6948 3.99524 15.2715C3.85064 14.9877 3.79715 14.6928 3.77293 14.3963C3.74997 14.1153 3.74999 13.7743 3.75 13.3789V6ZM10.867 4.5C10.7822 3.7087 10.0352 3 9 3C7.96484 3 7.21776 3.7087 7.13303 4.5H10.867ZM7.5 6.75C7.91421 6.75 8.25 7.08579 8.25 7.5V13.5C8.25 13.9142 7.91421 14.25 7.5 14.25C7.08579 14.25 6.75 13.9142 6.75 13.5V7.5C6.75 7.08579 7.08579 6.75 7.5 6.75ZM10.5 6.75C10.9142 6.75 11.25 7.08579 11.25 7.5V13.5C11.25 13.9142 10.9142 14.25 10.5 14.25C10.0858 14.25 9.75 13.9142 9.75 13.5V7.5C9.75 7.08579 10.0858 6.75 10.5 6.75Z" fill="#C40C0C"/>
</g>
</svg>
