<svg width="15" height="16" viewBox="0 0 15 16" fill="none" xmlns="http://www.w3.org/2000/svg">
<path fill-rule="evenodd" clip-rule="evenodd" d="M7.5 2.16667C5.65905 2.16667 4.16667 3.65905 4.16667 5.5C4.16667 7.34095 5.65905 8.83333 7.5 8.83333C9.34095 8.83333 10.8333 7.34095 10.8333 5.5C10.8333 3.65905 9.34095 2.16667 7.5 2.16667ZM4.33666 9.37231C3.5783 9.64525 2.88554 10.0148 2.28595 10.4645C0.921671 11.4877 0 12.9648 0 14.6667C0 15.1269 0.373096 15.5 0.833333 15.5C1.29357 15.5 1.66667 15.1269 1.66667 14.6667C1.66667 13.6071 2.23738 12.5842 3.28595 11.7978C4.33479 11.0112 5.82192 10.5 7.5 10.5C10.2614 10.5 12.5 8.26142 12.5 5.5C12.5 2.73858 10.2614 0.5 7.5 0.5C4.73858 0.5 2.5 2.73858 2.5 5.5C2.5 7.06126 3.21558 8.4554 4.33666 9.37231ZM11.6667 11.3333C11.2064 11.3333 10.8333 11.7064 10.8333 12.1667C10.8333 12.6269 11.2064 13 11.6667 13C12.1269 13 12.5 12.6269 12.5 12.1667C12.5 11.7064 12.1269 11.3333 11.6667 11.3333ZM9.16667 12.1667C9.16667 10.786 10.286 9.66667 11.6667 9.66667C13.0474 9.66667 14.1667 10.786 14.1667 12.1667C14.1667 12.5526 14.0792 12.9182 13.923 13.2445L14.7559 14.0774C15.0814 14.4028 15.0814 14.9305 14.7559 15.2559C14.4305 15.5814 13.9028 15.5814 13.5774 15.2559L12.7445 14.423C12.4182 14.5792 12.0526 14.6667 11.6667 14.6667C10.286 14.6667 9.16667 13.5474 9.16667 12.1667Z" fill="white"/>
</svg>
