<svg  viewBox="0 0 18 18" fill="none" xmlns="http://www.w3.org/2000/svg">
<g id="upload">
<path id="Icon (Stroke)" fill-rule="evenodd" clip-rule="evenodd" d="M7.93934 2.24989C8.52513 1.6641 9.47487 1.6641 10.0607 2.24989L12.5303 4.71956C12.8232 5.01245 12.8232 5.48732 12.5303 5.78022C12.2374 6.07311 11.7626 6.07311 11.4697 5.78022L9.75 4.06055L9.75 11.9999C9.75 12.4141 9.41421 12.7499 9 12.7499C8.58579 12.7499 8.25 12.4141 8.25 11.9999L8.25 4.06055L6.53033 5.78022C6.23744 6.07311 5.76256 6.07311 5.46967 5.78022C5.17678 5.48732 5.17678 5.01245 5.46967 4.71956L7.93934 2.24989ZM2.25 11.2499C2.66421 11.2499 3 11.5857 3 11.9999V12.1499C3 12.7923 3.00058 13.229 3.02816 13.5666C3.05503 13.8954 3.10372 14.0636 3.16349 14.1809C3.3073 14.4631 3.53677 14.6926 3.81901 14.8364C3.93631 14.8962 4.10447 14.9449 4.43328 14.9717C4.77085 14.9993 5.20757 14.9999 5.85 14.9999H12.15C12.7924 14.9999 13.2292 14.9993 13.5667 14.9717C13.8955 14.9449 14.0637 14.8962 14.181 14.8364C14.4632 14.6926 14.6927 14.4631 14.8365 14.1809C14.8963 14.0636 14.945 13.8954 14.9718 13.5666C14.9994 13.229 15 12.7923 15 12.1499V11.9999C15 11.5857 15.3358 11.2499 15.75 11.2499C16.1642 11.2499 16.5 11.5857 16.5 11.9999V12.1809C16.5 12.7846 16.5 13.2829 16.4669 13.6888C16.4324 14.1103 16.3585 14.4979 16.173 14.8619C15.8854 15.4263 15.4265 15.8853 14.862 16.1729C14.498 16.3584 14.1104 16.4323 13.6889 16.4667C13.283 16.4999 12.7847 16.4999 12.181 16.4999H5.81901C5.21529 16.4999 4.71702 16.4999 4.31113 16.4667C3.88956 16.4323 3.50203 16.3584 3.13803 16.1729C2.57354 15.8853 2.1146 15.4263 1.82698 14.8619C1.64151 14.4979 1.56759 14.1103 1.53315 13.6888C1.49998 13.2829 1.49999 12.7846 1.5 12.1809L1.5 11.9999C1.5 11.5857 1.83579 11.2499 2.25 11.2499Z"/>
</g>
</svg>
